<svg width="208" height="111" viewBox="0 0 208 111" fill="none" xmlns="http://www.w3.org/2000/svg">
<rect width="208" height="111" fill="var(--figma-color-bg)"/>
<path d="M99 55.5C99 80.0767 79.0767 100 54.5 100C29.9233 100 10 80.0767 10 55.5C10 30.9233 29.9233 11 54.5 11" stroke="var(--figma-color-bg-selected)"/>
<path d="M153.5 100C178.077 100 198 80.0767 198 55.5C198 30.9233 178.077 11 153.5 11C128.923 11 109 30.9233 109 55.5" stroke="var(--figma-color-bg-selected)"/>
<circle cx="104" cy="56" r="22" fill="var(--figma-color-bg-brand)"/>
<path d="M93.8462 49.2308L93.3234 48.693C93.1781 48.8342 93.0962 49.0282 93.0962 49.2308C93.0962 49.4333 93.1781 49.6273 93.3234 49.7685L93.8462 49.2308ZM94.369 49.7685L100.461 43.8454L99.4157 42.7699L93.3234 48.693L94.369 49.7685ZM93.3234 49.7685L99.4157 55.6916L100.461 54.6161L94.369 48.693L93.3234 49.7685ZM93.8462 49.9808H114.154V48.4808H93.8462V49.9808Z" fill="white"/>
<path d="M114.154 62.7692L114.677 62.2315C114.822 62.3727 114.904 62.5667 114.904 62.7692C114.904 62.9718 114.822 63.1658 114.677 63.307L114.154 62.7692ZM113.631 63.307L107.539 57.3839L108.584 56.3084L114.677 62.2315L113.631 63.307ZM114.677 63.307L108.584 69.2301L107.539 68.1546L113.631 62.2315L114.677 63.307ZM114.154 63.5192H93.8461V62.0192H114.154V63.5192Z" fill="white"/>
<g clip-path="url(#clip0_1_1319)">
<path d="M54.5 72.5H53.5V75.5H54.5V72.5ZM49.05 74.343L48.343 75.05L50.465 77.172L51.172 76.464L49.05 74.344V74.343ZM59.657 75.05L58.95 74.343L56.829 76.464L57.536 77.172L59.657 75.05V75.05ZM46.5 79.5V80.5H49.5V79.5H46.5ZM58.5 79.5V80.5H61.5V79.5H58.5ZM51.172 83.536L50.465 82.828L48.343 84.95L49.05 85.657L51.172 83.536ZM57.535 82.828L56.828 83.536L58.95 85.656L59.657 84.95L57.535 82.828ZM54.5 84.5H53.5V87.5H54.5V84.5Z" fill="var(--figma-color-text)"/>
<path fill-rule="evenodd" clip-rule="evenodd" d="M56.498 79.998C56.498 81.378 55.378 82.498 53.998 82.498C52.618 82.498 51.498 81.378 51.498 79.998C51.498 78.618 52.618 77.498 53.998 77.498C55.378 77.498 56.498 78.618 56.498 79.998V79.998ZM55.498 79.998C55.498 80.826 54.826 81.498 53.998 81.498C53.169 81.498 52.498 80.826 52.498 79.998C52.498 79.169 53.169 78.498 53.998 78.498C54.826 78.498 55.498 79.169 55.498 79.998V79.998Z" fill="var(--figma-color-text)"/>
</g>
<g clip-path="url(#clip1_1_1319)">
<circle cx="54" cy="32" r="8" fill="var(--figma-color-bg-brand)"/>
</g>
<path d="M48.3299 59L49.0643 56.8828H52.1893L52.9198 59H54.201L51.3221 51H49.9276L47.0487 59H48.3299ZM49.4159 55.8672L50.5956 52.4531H50.6581L51.8377 55.8672H49.4159Z" fill="var(--figma-color-text)"/>
<path d="M57.7365 61.3633C59.2638 61.3633 60.4435 60.6641 60.4435 59.1328V53H59.299V53.9727H59.2131C59.006 53.6016 58.592 52.9219 57.4748 52.9219C56.0256 52.9219 54.9591 54.0664 54.9591 55.9766C54.9591 57.8906 56.049 58.9102 57.467 58.9102C58.5685 58.9102 58.9943 58.2891 59.2052 57.9062H59.2795V59.0859C59.2795 60.0117 58.6349 60.4219 57.7482 60.4219C56.7756 60.4219 56.3966 59.9336 56.1896 59.6016L55.1857 60.0156C55.5021 60.7383 56.3029 61.3633 57.7365 61.3633ZM57.7248 57.9414C56.6818 57.9414 56.1388 57.1406 56.1388 55.9609C56.1388 54.8086 56.6701 53.9141 57.7248 53.9141C58.7443 53.9141 59.2912 54.7461 59.2912 55.9609C59.2912 57.1992 58.7326 57.9414 57.7248 57.9414Z" fill="var(--figma-color-text)"/>
<path d="M154.5 73.5H153.5V75.5H154.5V73.5ZM150.05 75.343L149.343 76.05L150.465 77.172L151.172 76.464L150.05 75.344V75.343ZM158.657 76.05L157.95 75.343L156.829 76.464L157.536 77.172L158.657 76.05ZM147.5 79.5V80.5H149.5V79.5H147.5ZM158.5 79.5V80.5H160.5V79.5H158.5ZM151.172 83.536L150.465 82.828L149.343 83.95L150.05 84.657L151.172 83.536ZM157.535 82.828L156.828 83.536L157.95 84.656L158.657 83.95L157.535 82.828ZM154.5 84.5H153.5V86.5H154.5V84.5Z" fill="var(--figma-color-text)"/>
<path fill-rule="evenodd" clip-rule="evenodd" d="M156.498 79.998C156.498 81.378 155.378 82.498 153.998 82.498C152.618 82.498 151.498 81.378 151.498 79.998C151.498 78.618 152.618 77.498 153.998 77.498C155.378 77.498 156.498 78.618 156.498 79.998V79.998ZM155.498 79.998C155.498 80.826 154.826 81.498 153.998 81.498C153.169 81.498 152.498 80.826 152.498 79.998C152.498 79.169 153.169 78.498 153.998 78.498C154.826 78.498 155.498 79.169 155.498 79.998V79.998Z" fill="var(--figma-color-text)"/>
<g clip-path="url(#clip2_1_1319)">
<circle cx="154" cy="32" r="8" fill="#7B61FF"/>
</g>
<path d="M148.391 58.5952L149.347 58.8475V59.2857H146.652V58.8475L147.608 58.5952L150.091 51.1726L150.861 51L153.477 58.5952L154.433 58.8475V59.2857H151.551V58.8475L152.348 58.6218L151.87 57.2674H148.829L148.391 58.5952ZM150.317 52.7527L149.015 56.6566H151.671L150.317 52.7527Z" fill="var(--figma-color-text)"/>
<path d="M157.337 61.636C156.417 61.636 155.802 61.5209 155.492 61.2907C155.182 61.0606 155.027 60.7463 155.027 60.348C155.027 60.1267 155.085 59.8877 155.2 59.631C155.324 59.3831 155.523 59.1441 155.797 58.9139C155.523 58.7723 155.386 58.5288 155.386 58.1836C155.386 57.9977 155.456 57.7941 155.598 57.5728C155.74 57.3515 155.943 57.0992 156.209 56.8159C155.66 56.4353 155.386 55.7979 155.386 54.9038C155.386 54.5055 155.474 54.1381 155.651 53.8017C155.837 53.4565 156.111 53.1777 156.474 52.9652C156.837 52.7527 157.28 52.6465 157.802 52.6465C158.103 52.6465 158.364 52.6775 158.586 52.7395C158.816 52.7926 159.037 52.8767 159.25 52.9918L161.135 52.5005V53.4299H159.635C159.821 53.5981 159.962 53.815 160.06 54.0806C160.157 54.3462 160.206 54.6206 160.206 54.9038C160.206 55.5324 160.002 56.0591 159.595 56.484C159.196 56.9 158.55 57.1081 157.656 57.1081C157.435 57.1081 157.222 57.0948 157.019 57.0682C156.824 57.0328 156.727 57.0107 156.727 57.0018C156.594 57.1789 156.501 57.3249 156.448 57.44C156.395 57.5462 156.368 57.648 156.368 57.7454C156.368 57.8516 156.404 57.949 156.474 58.0375C156.554 58.1261 156.656 58.1703 156.78 58.1703H158.971C159.617 58.1703 160.104 58.2633 160.431 58.4492C160.759 58.6262 160.923 58.9715 160.923 59.4849C160.923 59.839 160.794 60.1798 160.538 60.5073C160.29 60.8349 159.896 61.1049 159.356 61.3173C158.816 61.5298 158.143 61.636 157.337 61.636ZM157.829 56.484C158.298 56.484 158.625 56.3512 158.811 56.0856C158.997 55.8112 159.09 55.4173 159.09 54.9038C159.09 54.3993 158.984 54.0009 158.772 53.7088C158.568 53.4167 158.24 53.2706 157.789 53.2706C157.32 53.2706 156.988 53.4122 156.793 53.6955C156.607 53.9788 156.514 54.3816 156.514 54.9038C156.514 55.4173 156.612 55.8112 156.806 56.0856C157.01 56.3512 157.351 56.484 157.829 56.484ZM157.444 60.9721C158.32 60.9721 158.957 60.857 159.356 60.6268C159.763 60.3967 159.967 60.0824 159.967 59.6841C159.967 59.4273 159.891 59.2547 159.741 59.1662C159.599 59.0688 159.365 59.0201 159.037 59.0201H156.435C156.142 59.3831 155.996 59.7328 155.996 60.0691C155.996 60.3967 156.098 60.6268 156.302 60.7596C156.505 60.9012 156.886 60.9721 157.444 60.9721Z" fill="var(--figma-color-text)"/>
<defs>
<clipPath id="clip0_1_1319">
<rect width="16" height="16" fill="white" transform="translate(46 72)"/>
</clipPath>
<clipPath id="clip1_1_1319">
<rect width="16" height="16" fill="white" transform="translate(46 24)"/>
</clipPath>
<clipPath id="clip2_1_1319">
<rect width="16" height="16" fill="white" transform="translate(146 24)"/>
</clipPath>
</defs>
</svg>
