<svg fill="none" height="112" viewBox="0 0 208 112" width="208" xmlns="http://www.w3.org/2000/svg" xmlns:xlink="http://www.w3.org/1999/xlink"><clipPath id="a"><path d="m46 24.5h16v16h-16z"/></clipPath><clipPath id="b"><path d="m146 24.5h16v16h-16z"/></clipPath><path d="m0 .5h208v111h-208z" fill="#fff"/><path d="m99 56c0 24.5767-19.9233 44.5-44.5 44.5s-44.5-19.9233-44.5-44.5 19.9233-44.5 44.5-44.5" stroke="#daebf7"/><path d="m153.5 100.5c24.577 0 44.5-19.9233 44.5-44.5s-19.923-44.5-44.5-44.5-44.5 19.9233-44.5 44.5" stroke="#daebf7"/><circle cx="104" cy="56.5" fill="#189ffb" r="22"/><g fill="#fff"><path d="m93.8462 49.7308-.5229-.5378c-.1452.1412-.2271.3352-.2271.5378 0 .2025.0819.3965.2271.5377zm.5228.5377 6.092-5.9231-1.0453-1.0755-6.0924 5.9231zm-1.0457 0 6.0924 5.9231 1.0453-1.0755-6.092-5.9231zm.5229.2123h20.3078v-1.5h-20.3078z"/><path d="m114.154 63.2692.523-.5377c.145.1412.227.3351.227.5377s-.082.3965-.227.5378zm-.523.5378-6.092-5.9231 1.045-1.0755 6.093 5.9231zm1.046 0-6.093 5.923-1.045-1.0755 6.092-5.923zm-.523.2122h-20.3078v-1.5h20.3078z"/><path d="m46 72.5h16v16h-16z"/></g><path d="m54.5 73h-1v3h1zm-5.45 1.843-.707.707 2.122 2.122.707-.708-2.122-2.12zm10.607.707-.707-.707-2.121 2.121.707.708zm-13.157 4.45v1h3v-1zm12 0v1h3v-1zm-7.328 4.036-.707-.708-2.122 2.122.707.707zm6.363-.708-.707.708 2.122 2.12.707-.706zm-3.035 1.672h-1v3h1z" fill="#000"/><path clip-rule="evenodd" d="m56.498 80.498c0 1.38-1.12 2.5-2.5 2.5s-2.5-1.12-2.5-2.5 1.12-2.5 2.5-2.5 2.5 1.12 2.5 2.5zm-1 0c0 .828-.672 1.5-1.5 1.5-.829 0-1.5-.672-1.5-1.5 0-.829.671-1.5 1.5-1.5.828 0 1.5.671 1.5 1.5z" fill="#000" fill-rule="evenodd"/><g clip-path="url(#a)"><path d="m0 0h16v16h-16z" fill="#fff" transform="translate(46 24.5)"/><circle cx="54" cy="32.5" fill="#189ffb" r="8"/></g><path d="m46 48.5h16v16h-16z" fill="#fff"/><path d="m48.3299 59.5.7344-2.1172h3.125l.7305 2.1172h1.2812l-2.8789-8h-1.3945l-2.8789 8zm1.086-3.1328 1.1797-3.4141h.0625l1.1796 3.4141z" fill="#000"/><path d="m57.7365 61.8633c1.5273 0 2.707-.6992 2.707-2.2305v-6.1328h-1.1445v.9727h-.0859c-.2071-.3711-.6211-1.0508-1.7383-1.0508-1.4492 0-2.5157 1.1445-2.5157 3.0547 0 1.914 1.0899 2.9336 2.5079 2.9336 1.1015 0 1.5273-.6211 1.7382-1.004h.0743v1.1797c0 .9258-.6446 1.336-1.5313 1.336-.9726 0-1.3516-.4883-1.5586-.8203l-1.0039.414c.3164.7227 1.1172 1.3477 2.5508 1.3477zm-.0117-3.4219c-1.043 0-1.586-.8008-1.586-1.9805 0-1.1523.5313-2.0468 1.586-2.0468 1.0195 0 1.5664.832 1.5664 2.0468 0 1.2383-.5586 1.9805-1.5664 1.9805z" fill="#000"/><path d="m146 72.5h16v16h-16z" fill="#fff"/><path d="m154.5 74h-1v2h1zm-4.45 1.843-.707.707 1.122 1.122.707-.708-1.122-1.12zm8.607.707-.707-.707-1.121 1.121.707.708zm-11.157 3.45v1h2v-1zm11 0v1h2v-1zm-7.328 4.036-.707-.708-1.122 1.122.707.707zm6.363-.708-.707.708 1.122 1.12.707-.706zm-3.035 1.672h-1v2h1z" fill="#000"/><path clip-rule="evenodd" d="m156.498 80.498c0 1.38-1.12 2.5-2.5 2.5s-2.5-1.12-2.5-2.5 1.12-2.5 2.5-2.5 2.5 1.12 2.5 2.5zm-1 0c0 .828-.672 1.5-1.5 1.5-.829 0-1.5-.672-1.5-1.5 0-.829.671-1.5 1.5-1.5.828 0 1.5.671 1.5 1.5z" fill="#000" fill-rule="evenodd"/><g clip-path="url(#b)"><path d="m0 0h16v16h-16z" fill="#fff" transform="translate(146 24.5)"/><circle cx="154" cy="32.5" fill="#7b61ff" r="8"/></g><path d="m146 48.5h16v16h-16z" fill="#fff"/><path d="m148.391 59.0952.956.2523v.4382h-2.695v-.4382l.956-.2523 2.483-7.4226.77-.1726 2.616 7.5952.956.2523v.4382h-2.882v-.4382l.797-.2257-.478-1.3544h-3.041zm1.926-5.8425-1.302 3.9039h2.656z" fill="#000"/><path d="m157.337 62.136c-.92 0-1.535-.1151-1.845-.3453-.31-.2301-.465-.5444-.465-.9427 0-.2213.058-.4603.173-.717.124-.2479.323-.4869.597-.7171-.274-.1416-.411-.3851-.411-.7303 0-.1859.07-.3895.212-.6108s.345-.4736.611-.7569c-.549-.3806-.823-1.018-.823-1.9121 0-.3983.088-.7657.265-1.1021.186-.3452.46-.624.823-.8365s.806-.3187 1.328-.3187c.301 0 .562.031.784.093.23.0531.451.1372.664.2523l1.885-.4913v.9294h-1.5c.186.1682.327.3851.425.6507.097.2656.146.54.146.8232 0 .6286-.204 1.1553-.611 1.5802-.399.416-1.045.6241-1.939.6241-.221 0-.434-.0133-.637-.0399-.195-.0354-.292-.0575-.292-.0664-.133.1771-.226.3231-.279.4382-.053.1062-.08.208-.08.3054 0 .1062.036.2036.106.2921.08.0886.182.1328.306.1328h2.191c.646 0 1.133.093 1.46.2789.328.177.492.5223.492 1.0357 0 .3541-.129.6949-.385 1.0224-.248.3276-.642.5976-1.182.81-.54.2125-1.213.3187-2.019.3187zm.492-5.152c.469 0 .796-.1328.982-.3984.186-.2744.279-.6683.279-1.1818 0-.5045-.106-.9029-.318-1.195-.204-.2921-.532-.4382-.983-.4382-.469 0-.801.1416-.996.4249-.186.2833-.279.6861-.279 1.2083 0 .5135.098.9074.292 1.1818.204.2656.545.3984 1.023.3984zm-.385 4.4881c.876 0 1.513-.1151 1.912-.3453.407-.2301.611-.5444.611-.9427 0-.2568-.076-.4294-.226-.5179-.142-.0974-.376-.1461-.704-.1461h-2.602c-.293.363-.439.7127-.439 1.049 0 .3276.102.5577.306.6905.203.1416.584.2125 1.142.2125z" fill="#000"/></svg>