<svg width="240" height="40" viewBox="0 0 240 40" fill="none" xmlns="http://www.w3.org/2000/svg">
<g clip-path="url(#clip0_47_13985)">
<rect width="240" height="40" fill="var(--figma-color-bg)"/>
<path d="M30 88.6111C67.8929 88.6111 98.6111 57.8929 98.6111 20C98.6111 -17.8928 67.8929 -48.6111 30 -48.6111C-7.89286 -48.6111 -38.6111 -17.8928 -38.6111 20C-38.6111 57.8929 -7.89286 88.6111 30 88.6111Z" fill="var(--figma-color-bg-selected-secondary)"/>
<path d="M23.4027 66.1807C48.9075 66.1807 69.5833 45.5049 69.5833 20.0001C69.5833 -5.50478 48.9075 -26.1805 23.4027 -26.1805C-2.10214 -26.1805 -22.7779 -5.50478 -22.7779 20.0001C-22.7779 45.5049 -2.10214 66.1807 23.4027 66.1807Z" fill="var(--figma-color-bg-selected)"/>
<path d="M29.9792 34.5139C37.995 34.5139 44.4931 28.0158 44.4931 20C44.4931 11.9842 37.995 5.48608 29.9792 5.48608C21.9634 5.48608 15.4653 11.9842 15.4653 20C15.4653 28.0158 21.9634 34.5139 29.9792 34.5139Z" fill="var(--figma-color-bg-brand)"/>
<path d="M23.2805 15.5342L22.9356 15.1794C22.8398 15.2726 22.7857 15.4006 22.7857 15.5342C22.7857 15.6678 22.8398 15.7958 22.9356 15.889L23.2805 15.5342ZM23.6254 15.889L27.6447 11.9813L26.9548 11.2719L22.9356 15.1794L23.6254 15.889ZM22.9356 15.889L26.9548 19.7966L27.6447 19.087L23.6254 15.1794L22.9356 15.889ZM23.2805 16.0289H36.678V15.0394H23.2805V16.0289Z" fill="var(--figma-color-icon-onbrand)"/>
<path d="M36.678 24.4658L37.0229 24.111C37.1187 24.2042 37.1728 24.3322 37.1728 24.4658C37.1728 24.5995 37.1187 24.7274 37.0229 24.8206L36.678 24.4658ZM36.3331 24.8206L32.3138 20.913L33.0037 20.2035L37.0229 24.111L36.3331 24.8206ZM37.0229 24.8206L33.0037 28.7282L32.3138 28.0186L36.3331 24.111L37.0229 24.8206ZM36.678 24.9606H23.2805V23.971H36.678V24.9606Z" fill="var(--figma-color-icon-onbrand)"/>
</g>
<defs>
<clipPath id="clip0_47_13985">
<rect width="240" height="40" fill="var(--figma-color-bg)"/>
</clipPath>
</defs>
</svg>
