<svg width="240" height="40" viewBox="0 0 240 40" fill="none" xmlns="http://www.w3.org/2000/svg">
<g clip-path="url(#clip0_1289_546)">
<rect width="240" height="40" fill="white"/>
<circle opacity="0.08" cx="30" cy="20" r="68.6111" fill="#189FFB"/>
<circle opacity="0.08" cx="30" cy="19" r="95" fill="#189FFB"/>
<circle opacity="0.1" cx="23.4027" cy="20" r="46.1806" fill="#189FFB"/>
<circle cx="29.9792" cy="20" r="14.5139" fill="#189FFB"/>
<path d="M23.2805 15.5342L22.9356 15.1794C22.8398 15.2726 22.7857 15.4006 22.7857 15.5342C22.7857 15.6678 22.8398 15.7958 22.9356 15.889L23.2805 15.5342ZM23.6254 15.889L27.6447 11.9814L26.9548 11.2719L22.9356 15.1794L23.6254 15.889ZM22.9356 15.889L26.9548 19.7966L27.6447 19.087L23.6254 15.1794L22.9356 15.889ZM23.2805 16.029H36.678V15.0394H23.2805V16.029Z" fill="white"/>
<path d="M36.678 24.4658L37.0229 24.111C37.1187 24.2042 37.1728 24.3322 37.1728 24.4658C37.1728 24.5995 37.1187 24.7274 37.0229 24.8206L36.678 24.4658ZM36.3331 24.8206L32.3138 20.913L33.0037 20.2035L37.0229 24.111L36.3331 24.8206ZM37.0229 24.8206L33.0037 28.7282L32.3138 28.0186L36.3331 24.111L37.0229 24.8206ZM36.678 24.9606H23.2805V23.971H36.678V24.9606Z" fill="white"/>
</g>
<defs>
<clipPath id="clip0_1289_546">
<rect width="240" height="40" fill="white"/>
</clipPath>
</defs>
</svg>
