<svg width="240" height="64" viewBox="0 0 240 64" fill="none" xmlns="http://www.w3.org/2000/svg">
<g clip-path="url(#clip0)">
<rect width="240" height="64" fill="#F5F5F5"/>
<circle opacity="0.08" cx="120" cy="32" r="104" fill="#189FFB"/>
<circle opacity="0.1" cx="120" cy="32" r="70" fill="#189FFB"/>
<circle cx="120" cy="32" r="22" fill="#189FFB"/>
<path d="M109.846 25.2308L109.323 24.693C109.178 24.8342 109.096 25.0282 109.096 25.2308C109.096 25.4333 109.178 25.6273 109.323 25.7685L109.846 25.2308ZM110.369 25.7685L116.461 19.8454L115.416 18.7699L109.323 24.693L110.369 25.7685ZM109.323 25.7685L115.416 31.6916L116.461 30.6161L110.369 24.693L109.323 25.7685ZM109.846 25.9808H130.154V24.4808H109.846V25.9808Z" fill="white"/>
<path d="M130.154 38.7692L130.677 38.2315C130.822 38.3727 130.904 38.5666 130.904 38.7692C130.904 38.9718 130.822 39.1657 130.677 39.307L130.154 38.7692ZM129.631 39.307L123.539 33.3839L124.584 32.3084L130.677 38.2315L129.631 39.307ZM130.677 39.307L124.584 45.23L123.539 44.1545L129.631 38.2315L130.677 39.307ZM130.154 39.5192H109.846V38.0192H130.154V39.5192Z" fill="white"/>
</g>
<defs>
<clipPath id="clip0">
<rect width="240" height="64" fill="white"/>
</clipPath>
</defs>
</svg>
