<svg fill="none" height="32" viewBox="0 0 32 32" width="32" xmlns="http://www.w3.org/2000/svg"><g fill="#000"><path clip-rule="evenodd" d="m16 23c3.866 0 7-3.134 7-7s-3.134-7-7-7-7 3.134-7 7 3.134 7 7 7zm0 1c4.4183 0 8-3.5817 8-8s-3.5817-8-8-8-8 3.5817-8 8 3.5817 8 8 8z" fill-rule="evenodd"/><path clip-rule="evenodd" d="m14.7043 12.5638c-.4193.3668-.7043.8636-.7043 1.4362h-1c0-.9274.465-1.6806 1.0457-2.1888.5713-.4999 1.3092-.8112 1.9543-.8112 1.7011 0 3 1.1543 3 2.5 0 .7145-.1813 1.2394-.5022 1.6352-.3083.3802-.7091.592-1.0242.7495-.0342.0171-.0671.0335-.0989.0493-.2917.1451-.4877.2426-.6366.3864-.1284.1242-.2381.3028-.2381.6796v1h-1v-.9992c0-.6232.2028-1.0704.5431-1.3994.2689-.2599.6147-.4298.8832-.5617.0348-.017.0682-.0335.1001-.0494.3099-.155.5341-.287.6946-.4849.1478-.1823.279-.4699.279-1.0054 0-.6543-.7011-1.5-2-1.5-.3549 0-.867.1887-1.2957.5638z" fill-rule="evenodd"/><path d="m16.75 19.75c0 .4142-.3358.75-.75.75s-.75-.3358-.75-.75.3358-.75.75-.75.75.3358.75.75z"/></g></svg>