<svg width="240" height="120" viewBox="0 0 240 120" fill="none" xmlns="http://www.w3.org/2000/svg">
<rect width="240" height="120" fill="#F5F5F5"/>
<g filter="url(#filter0_d_1296_1812)">
<rect x="71" y="35" width="40" height="52" fill="white"/>
</g>
<rect x="74" y="38" width="4" height="4" fill="#0D99FF"/>
<rect x="96" y="78" width="12" height="6" rx="0.680344" fill="#189FFB"/>
<path d="M106 38L107.5 39.5M109 41L107.5 39.5M107.5 39.5L109 38L106 41" stroke="black" stroke-width="0.5"/>
<rect x="71" y="45" width="40" height="1" fill="#D9D9D9"/>
<rect x="71" y="49" width="40" height="8" fill="#DAEBF7"/>
<path d="M74.5 51V54.5H78M76 53L77.5 51.5" stroke="#0B0B0B" stroke-opacity="0.4"/>
<path d="M74.5 59V62.5H78M76 61L77.5 59.5" stroke="#0B0B0B" stroke-opacity="0.4"/>
<path d="M74.5 67V70.5H78M76 69L77.5 67.5" stroke="#0B0B0B" stroke-opacity="0.4"/>
<rect x="81" y="52" width="16" height="2" rx="1" fill="#879199"/>
<rect x="81" y="60" width="20" height="2" rx="1" fill="#D9D9D9"/>
<rect x="81" y="68" width="14" height="2" rx="1" fill="#D9D9D9"/>
<g filter="url(#filter1_dd_1296_1812)">
<rect x="129" y="35" width="40" height="52" fill="#2C2C2C"/>
</g>
<rect x="132" y="38" width="4" height="4" fill="#0C8CE9"/>
<rect x="154" y="78" width="12" height="6" rx="0.680344" fill="#0C8CE9"/>
<path d="M164 38L165.5 39.5M167 41L165.5 39.5M165.5 39.5L167 38L164 41" stroke="white" stroke-width="0.5"/>
<rect x="129" y="45" width="40" height="1" fill="#444444"/>
<rect x="129" y="49" width="40" height="8" fill="#495878"/>
<path d="M132.5 51V54.5H136M134 53L135.5 51.5" stroke="#F3F3F3" stroke-opacity="0.4"/>
<path d="M132.5 59V62.5H136M134 61L135.5 59.5" stroke="#F3F3F3" stroke-opacity="0.4"/>
<path d="M132.5 67V70.5H136M134 69L135.5 67.5" stroke="#F3F3F3" stroke-opacity="0.4"/>
<rect x="139" y="52" width="16" height="2" rx="1" fill="white"/>
<rect x="139" y="60" width="20" height="2" rx="1" fill="white" fill-opacity="0.8"/>
<rect x="139" y="68" width="14" height="2" rx="1" fill="white" fill-opacity="0.8"/>
<circle cx="120" cy="61" r="12" fill="#189FFB"/>
<path d="M114.5 57.5L114.154 57.1391C114.056 57.2334 114 57.3637 114 57.5C114 57.6363 114.056 57.7666 114.154 57.8609L114.5 57.5ZM114.846 57.8609L117.915 54.9186L117.223 54.1968L114.154 57.1391L114.846 57.8609ZM114.154 57.8609L117.223 60.8032L117.915 60.0814L114.846 57.1391L114.154 57.8609ZM114.5 58L126 58L126 57L114.5 57L114.5 58Z" fill="white"/>
<path d="M126.5 63.9423L126.846 63.5814C126.944 63.6757 127 63.806 127 63.9423C127 64.0786 126.944 64.2089 126.846 64.3032L126.5 63.9423ZM126.154 64.3032L123.085 61.3609L123.777 60.639L126.846 63.5814L126.154 64.3032ZM126.846 64.3032L123.777 67.2455L123.085 66.5237L126.154 63.5814L126.846 64.3032ZM126.5 64.4423L115 64.4423L115 63.4423L126.5 63.4423L126.5 64.4423Z" fill="white"/>
<path d="M47.8632 40V35.6364H48.7858V39.2393H50.6565V40H47.8632ZM51.2805 40V36.7273H52.1881V40H51.2805ZM51.7364 36.3054C51.6015 36.3054 51.4857 36.2607 51.3891 36.1712C51.294 36.0803 51.2464 35.9716 51.2464 35.8452C51.2464 35.7202 51.294 35.6129 51.3891 35.5234C51.4857 35.4325 51.6015 35.3871 51.7364 35.3871C51.8714 35.3871 51.9864 35.4325 52.0816 35.5234C52.1782 35.6129 52.2265 35.7202 52.2265 35.8452C52.2265 35.9716 52.1782 36.0803 52.0816 36.1712C51.9864 36.2607 51.8714 36.3054 51.7364 36.3054ZM54.4197 41.2955C54.1256 41.2955 53.8735 41.255 53.6633 41.174C53.4545 41.0945 53.2883 40.9858 53.1647 40.848C53.0411 40.7102 52.9608 40.5554 52.9239 40.3835L53.7634 40.2706C53.789 40.3359 53.8295 40.397 53.8849 40.4538C53.9403 40.5107 54.0134 40.5561 54.1043 40.5902C54.1966 40.6257 54.3089 40.6435 54.441 40.6435C54.6384 40.6435 54.801 40.5952 54.9289 40.4986C55.0581 40.4034 55.1228 40.2436 55.1228 40.0192V39.4205H55.0844C55.0447 39.5114 54.985 39.5973 54.9055 39.6783C54.8259 39.7592 54.7236 39.8253 54.5986 39.8764C54.4736 39.9276 54.3245 39.9531 54.1512 39.9531C53.9055 39.9531 53.6817 39.8963 53.48 39.7827C53.2797 39.6676 53.1199 39.4922 53.0006 39.2564C52.8827 39.0192 52.8238 38.7195 52.8238 38.3572C52.8238 37.9865 52.8841 37.6768 53.0049 37.4283C53.1256 37.1797 53.2861 36.9936 53.4864 36.87C53.6881 36.7464 53.909 36.6847 54.1491 36.6847C54.3323 36.6847 54.4857 36.7159 54.6093 36.7784C54.7329 36.8395 54.8323 36.9162 54.9076 37.0085C54.9843 37.0994 55.0432 37.1889 55.0844 37.277H55.1185V36.7273H56.0198V40.032C56.0198 40.3104 55.9516 40.5433 55.8153 40.7308C55.6789 40.9183 55.49 41.0589 55.2485 41.1527C55.0084 41.2479 54.7322 41.2955 54.4197 41.2955ZM54.4388 39.2713C54.5851 39.2713 54.7087 39.2351 54.8096 39.1626C54.9118 39.0888 54.99 38.9837 55.0439 38.8473C55.0993 38.7095 55.127 38.5447 55.127 38.353C55.127 38.1612 55.1001 37.995 55.0461 37.8544C54.9921 37.7124 54.914 37.6023 54.8117 37.5241C54.7094 37.446 54.5851 37.407 54.4388 37.407C54.2897 37.407 54.164 37.4474 54.0617 37.5284C53.9594 37.608 53.882 37.7187 53.8295 37.8608C53.7769 38.0028 53.7506 38.1669 53.7506 38.353C53.7506 38.5419 53.7769 38.7053 53.8295 38.843C53.8834 38.9794 53.9608 39.0852 54.0617 39.1605C54.164 39.2344 54.2897 39.2713 54.4388 39.2713ZM57.6798 38.108V40H56.7721V35.6364H57.6542V37.3047H57.6926C57.7664 37.1115 57.8857 36.9602 58.0505 36.8509C58.2153 36.7401 58.422 36.6847 58.6705 36.6847C58.8978 36.6847 59.096 36.7344 59.265 36.8338C59.4355 36.9318 59.5676 37.0732 59.6613 37.2578C59.7565 37.4411 59.8033 37.6605 59.8019 37.9162V40H58.8943V38.0781C58.8957 37.8764 58.8445 37.7195 58.7408 37.6072C58.6386 37.495 58.4951 37.4389 58.3105 37.4389C58.1869 37.4389 58.0775 37.4652 57.9823 37.5178C57.8886 37.5703 57.8147 37.647 57.7607 37.7479C57.7082 37.8473 57.6812 37.9673 57.6798 38.108ZM62.287 36.7273V37.4091H60.3161V36.7273H62.287ZM60.7636 35.9432H61.6712V38.9943C61.6712 39.0781 61.684 39.1435 61.7096 39.1903C61.7352 39.2358 61.7707 39.2678 61.8161 39.2862C61.863 39.3047 61.917 39.3139 61.9781 39.3139C62.0207 39.3139 62.0633 39.3104 62.1059 39.3033C62.1485 39.2947 62.1812 39.2884 62.2039 39.2841L62.3467 39.9595C62.3012 39.9737 62.2373 39.9901 62.1549 40.0085C62.0725 40.0284 61.9724 40.0405 61.8545 40.0447C61.6357 40.0533 61.444 40.0241 61.2792 39.9574C61.1158 39.8906 60.9887 39.7869 60.8978 39.6463C60.8069 39.5057 60.7621 39.3281 60.7636 39.1136V35.9432Z" fill="black"/>
<path d="M178.985 40H177.438V35.6364H178.997C179.436 35.6364 179.814 35.7237 180.131 35.8984C180.448 36.0717 180.691 36.321 180.862 36.6463C181.034 36.9716 181.12 37.3608 181.12 37.8139C181.12 38.2685 181.034 38.6591 180.862 38.9858C180.691 39.3125 180.446 39.5632 180.127 39.7379C179.809 39.9126 179.428 40 178.985 40ZM178.36 39.2095H178.946C179.219 39.2095 179.448 39.1612 179.635 39.0646C179.822 38.9666 179.963 38.8153 180.056 38.6108C180.152 38.4048 180.199 38.1392 180.199 37.8139C180.199 37.4915 180.152 37.228 180.056 37.0234C179.963 36.8189 179.823 36.6683 179.637 36.5717C179.451 36.4751 179.221 36.4268 178.948 36.4268H178.36V39.2095ZM182.749 40.0618C182.54 40.0618 182.354 40.0256 182.191 39.9531C182.028 39.8793 181.898 39.7706 181.803 39.6271C181.709 39.4822 181.663 39.3018 181.663 39.0859C181.663 38.9041 181.696 38.7514 181.763 38.6278C181.829 38.5043 181.92 38.4048 182.035 38.3295C182.15 38.2543 182.281 38.1974 182.427 38.1591C182.575 38.1207 182.73 38.0938 182.892 38.0781C183.082 38.0582 183.236 38.0398 183.352 38.0227C183.469 38.0043 183.553 37.9773 183.606 37.9418C183.658 37.9062 183.685 37.8537 183.685 37.7841V37.7713C183.685 37.6364 183.642 37.532 183.557 37.4581C183.473 37.3842 183.354 37.3473 183.199 37.3473C183.035 37.3473 182.905 37.3835 182.809 37.456C182.712 37.527 182.648 37.6165 182.617 37.7244L181.778 37.6562C181.82 37.4574 181.904 37.2855 182.029 37.1406C182.154 36.9943 182.315 36.8821 182.513 36.804C182.712 36.7244 182.942 36.6847 183.203 36.6847C183.385 36.6847 183.559 36.706 183.725 36.7486C183.893 36.7912 184.041 36.8572 184.17 36.9467C184.301 37.0362 184.404 37.1513 184.479 37.2919C184.555 37.4311 184.592 37.598 184.592 37.7926V40H183.731V39.5462H183.706C183.653 39.6484 183.583 39.7386 183.495 39.8168C183.407 39.8935 183.301 39.9538 183.177 39.9979C183.054 40.0405 182.911 40.0618 182.749 40.0618ZM183.009 39.4354C183.143 39.4354 183.261 39.4091 183.363 39.3565C183.465 39.3026 183.545 39.2301 183.604 39.1392C183.662 39.0483 183.691 38.9453 183.691 38.8303V38.483C183.663 38.5014 183.623 38.5185 183.574 38.5341C183.525 38.5483 183.471 38.5618 183.41 38.5746C183.349 38.5859 183.288 38.5966 183.226 38.6065C183.165 38.6151 183.11 38.6229 183.06 38.63C182.954 38.6456 182.861 38.6705 182.781 38.7045C182.702 38.7386 182.64 38.7848 182.596 38.843C182.552 38.8999 182.53 38.9709 182.53 39.0561C182.53 39.1797 182.574 39.2741 182.664 39.3395C182.755 39.4034 182.87 39.4354 183.009 39.4354ZM185.326 40V36.7273H186.206V37.2983H186.24C186.3 37.0952 186.4 36.9418 186.541 36.8381C186.682 36.733 186.843 36.6804 187.027 36.6804C187.072 36.6804 187.121 36.6832 187.174 36.6889C187.226 36.6946 187.272 36.7024 187.312 36.7124V37.5178C187.27 37.505 187.211 37.4936 187.135 37.4837C187.06 37.4737 186.991 37.4688 186.929 37.4688C186.795 37.4688 186.676 37.4979 186.571 37.5561C186.467 37.6129 186.385 37.6925 186.324 37.7947C186.264 37.897 186.234 38.0149 186.234 38.1484V40H185.326ZM188.634 39.0582L188.636 37.9695H188.768L189.816 36.7273H190.858L189.45 38.3722H189.235L188.634 39.0582ZM187.812 40V35.6364H188.719V40H187.812ZM189.857 40L188.894 38.5746L189.499 37.9332L190.92 40H189.857Z" fill="black"/>
<rect x="11" y="45" width="52" height="12" fill="white"/>
<rect x="11.25" y="45.25" width="51.5" height="11.5" stroke="black" stroke-opacity="0.1" stroke-width="0.5"/>
<rect x="11" y="60" width="52" height="12" fill="white"/>
<rect x="11.25" y="60.25" width="51.5" height="11.5" stroke="black" stroke-opacity="0.1" stroke-width="0.5"/>
<rect x="11" y="75" width="52" height="12" fill="white"/>
<rect x="11.25" y="75.25" width="51.5" height="11.5" stroke="black" stroke-opacity="0.1" stroke-width="0.5"/>
<circle cx="17" cy="51" r="3" fill="#DAEBF7"/>
<circle cx="17" cy="66" r="3" fill="white"/>
<circle cx="17" cy="66" r="2.75" stroke="black" stroke-opacity="0.1" stroke-width="0.5"/>
<circle cx="17" cy="81" r="3" fill="#189FFB"/>
<path d="M25.7784 50.4602L25.3267 50.5881C25.2983 50.5128 25.2564 50.4396 25.201 50.3686C25.147 50.2962 25.0732 50.2365 24.9794 50.1896C24.8857 50.1428 24.7656 50.1193 24.6193 50.1193C24.419 50.1193 24.2521 50.1655 24.1186 50.2578C23.9865 50.3487 23.9205 50.4645 23.9205 50.6051C23.9205 50.7301 23.9659 50.8288 24.0568 50.9013C24.1477 50.9737 24.2898 51.0341 24.483 51.0824L24.9688 51.2017C25.2614 51.2727 25.4794 51.3814 25.6229 51.5277C25.7663 51.6726 25.8381 51.8594 25.8381 52.0881C25.8381 52.2756 25.7841 52.4432 25.6761 52.5909C25.5696 52.7386 25.4205 52.8551 25.2287 52.9403C25.0369 53.0256 24.8139 53.0682 24.5597 53.0682C24.2259 53.0682 23.9496 52.9957 23.7308 52.8509C23.5121 52.706 23.3736 52.4943 23.3153 52.2159L23.7926 52.0966C23.8381 52.2727 23.924 52.4048 24.0504 52.4929C24.1783 52.581 24.3452 52.625 24.5511 52.625C24.7855 52.625 24.9716 52.5753 25.1094 52.4759C25.2486 52.375 25.3182 52.2543 25.3182 52.1136C25.3182 52 25.2784 51.9048 25.1989 51.8281C25.1193 51.75 24.9972 51.6918 24.8324 51.6534L24.2869 51.5256C23.9872 51.4545 23.767 51.3445 23.6264 51.1953C23.4872 51.0447 23.4176 50.8565 23.4176 50.6307C23.4176 50.446 23.4695 50.2827 23.5732 50.1406C23.6783 49.9986 23.821 49.8871 24.0014 49.8061C24.1832 49.7251 24.3892 49.6847 24.6193 49.6847C24.9432 49.6847 25.1974 49.7557 25.3821 49.8977C25.5682 50.0398 25.7003 50.2273 25.7784 50.4602ZM27.9972 53.0682C27.6818 53.0682 27.4098 52.9986 27.1811 52.8594C26.9538 52.7188 26.7784 52.5227 26.6548 52.2713C26.5327 52.0185 26.4716 51.7244 26.4716 51.3892C26.4716 51.054 26.5327 50.7585 26.6548 50.5028C26.7784 50.2457 26.9503 50.0455 27.1704 49.902C27.392 49.7571 27.6506 49.6847 27.946 49.6847C28.1165 49.6847 28.2848 49.7131 28.451 49.7699C28.6172 49.8267 28.7685 49.919 28.9048 50.0469C29.0412 50.1733 29.1499 50.3409 29.2308 50.5497C29.3118 50.7585 29.3523 51.0156 29.3523 51.321V51.5341H26.8295V51.0994H28.8409C28.8409 50.9148 28.804 50.75 28.7301 50.6051C28.6577 50.4602 28.554 50.3459 28.419 50.2621C28.2855 50.1783 28.1278 50.1364 27.946 50.1364C27.7457 50.1364 27.5724 50.1861 27.4261 50.2855C27.2812 50.3835 27.1697 50.5114 27.0916 50.669C27.0135 50.8267 26.9744 50.9957 26.9744 51.1761V51.4659C26.9744 51.7131 27.017 51.9226 27.1023 52.0945C27.1889 52.2649 27.3089 52.3949 27.4624 52.4844C27.6158 52.5724 27.794 52.6165 27.9972 52.6165C28.1293 52.6165 28.2486 52.598 28.3551 52.5611C28.4631 52.5227 28.5561 52.4659 28.6342 52.3906C28.7124 52.3139 28.7727 52.2187 28.8153 52.1051L29.3011 52.2415C29.25 52.4062 29.1641 52.5511 29.0433 52.6761C28.9226 52.7997 28.7734 52.8963 28.5959 52.9659C28.4183 53.0341 28.2187 53.0682 27.9972 53.0682ZM30.65 48.6364V53H30.1472V48.6364H30.65ZM32.9732 53.0682C32.6578 53.0682 32.3858 52.9986 32.1571 52.8594C31.9298 52.7188 31.7544 52.5227 31.6308 52.2713C31.5087 52.0185 31.4476 51.7244 31.4476 51.3892C31.4476 51.054 31.5087 50.7585 31.6308 50.5028C31.7544 50.2457 31.9263 50.0455 32.1465 49.902C32.3681 49.7571 32.6266 49.6847 32.922 49.6847C33.0925 49.6847 33.2608 49.7131 33.427 49.7699C33.5932 49.8267 33.7445 49.919 33.8808 50.0469C34.0172 50.1733 34.1259 50.3409 34.2068 50.5497C34.2878 50.7585 34.3283 51.0156 34.3283 51.321V51.5341H31.8056V51.0994H33.8169C33.8169 50.9148 33.78 50.75 33.7061 50.6051C33.6337 50.4602 33.53 50.3459 33.395 50.2621C33.2615 50.1783 33.1038 50.1364 32.922 50.1364C32.7217 50.1364 32.5485 50.1861 32.4021 50.2855C32.2573 50.3835 32.1458 50.5114 32.0676 50.669C31.9895 50.8267 31.9504 50.9957 31.9504 51.1761V51.4659C31.9504 51.7131 31.9931 51.9226 32.0783 52.0945C32.1649 52.2649 32.285 52.3949 32.4384 52.4844C32.5918 52.5724 32.77 52.6165 32.9732 52.6165C33.1053 52.6165 33.2246 52.598 33.3311 52.5611C33.4391 52.5227 33.5321 52.4659 33.6102 52.3906C33.6884 52.3139 33.7487 52.2187 33.7913 52.1051L34.2771 52.2415C34.226 52.4062 34.1401 52.5511 34.0193 52.6761C33.8986 52.7997 33.7494 52.8963 33.5719 52.9659C33.3943 53.0341 33.1948 53.0682 32.9732 53.0682ZM36.4527 53.0682C36.1459 53.0682 35.8817 52.9957 35.6601 52.8509C35.4385 52.706 35.2681 52.5064 35.1488 52.2521C35.0294 51.9979 34.9698 51.7074 34.9698 51.3807C34.9698 51.0483 35.0309 50.755 35.153 50.5007C35.2766 50.245 35.4485 50.0455 35.6687 49.902C35.8902 49.7571 36.1488 49.6847 36.4442 49.6847C36.6743 49.6847 36.8817 49.7273 37.0664 49.8125C37.251 49.8977 37.4023 50.017 37.5202 50.1705C37.6381 50.3239 37.7113 50.5028 37.7397 50.7074H37.2368C37.1985 50.5582 37.1133 50.4261 36.9812 50.3111C36.8505 50.1946 36.6743 50.1364 36.4527 50.1364C36.2567 50.1364 36.0848 50.1875 35.9371 50.2898C35.7908 50.3906 35.6765 50.5334 35.5941 50.718C35.5131 50.9013 35.4726 51.1165 35.4726 51.3636C35.4726 51.6165 35.5124 51.8366 35.5919 52.0241C35.6729 52.2116 35.7865 52.3572 35.9329 52.4609C36.0806 52.5646 36.2539 52.6165 36.4527 52.6165C36.5834 52.6165 36.702 52.5938 36.8086 52.5483C36.9151 52.5028 37.0053 52.4375 37.0792 52.3523C37.153 52.267 37.2056 52.1648 37.2368 52.0455H37.7397C37.7113 52.2386 37.641 52.4126 37.5287 52.5675C37.4179 52.7209 37.2709 52.843 37.0877 52.9339C36.9059 53.0234 36.6942 53.0682 36.4527 53.0682ZM39.9281 49.7273V50.1534H38.232V49.7273H39.9281ZM38.7263 48.9432H39.2292V52.0625C39.2292 52.2045 39.2498 52.3111 39.291 52.3821C39.3336 52.4517 39.3876 52.4986 39.4529 52.5227C39.5197 52.5455 39.59 52.5568 39.6638 52.5568C39.7192 52.5568 39.7647 52.554 39.8002 52.5483C39.8357 52.5412 39.8641 52.5355 39.8854 52.5312L39.9877 52.983C39.9536 52.9957 39.906 53.0085 39.845 53.0213C39.7839 53.0355 39.7065 53.0426 39.6127 53.0426C39.4707 53.0426 39.3315 53.0121 39.1951 52.951C39.0602 52.8899 38.9479 52.7969 38.8585 52.6719C38.7704 52.5469 38.7263 52.3892 38.7263 52.1989V48.9432ZM40.7144 53V49.7273H41.2173V53H40.7144ZM40.9701 49.1818C40.8721 49.1818 40.7876 49.1484 40.7166 49.0817C40.647 49.0149 40.6122 48.9347 40.6122 48.8409C40.6122 48.7472 40.647 48.6669 40.7166 48.6001C40.7876 48.5334 40.8721 48.5 40.9701 48.5C41.0681 48.5 41.1519 48.5334 41.2215 48.6001C41.2926 48.6669 41.3281 48.7472 41.3281 48.8409C41.3281 48.9347 41.2926 49.0149 41.2215 49.0817C41.1519 49.1484 41.0681 49.1818 40.9701 49.1818ZM43.4978 53.0682C43.2024 53.0682 42.9431 52.9979 42.7201 52.8572C42.4985 52.7166 42.3252 52.5199 42.2002 52.267C42.0767 52.0142 42.0149 51.7187 42.0149 51.3807C42.0149 51.0398 42.0767 50.7422 42.2002 50.4879C42.3252 50.2337 42.4985 50.0362 42.7201 49.8956C42.9431 49.755 43.2024 49.6847 43.4978 49.6847C43.7933 49.6847 44.0518 49.755 44.2734 49.8956C44.4964 50.0362 44.6697 50.2337 44.7933 50.4879C44.9183 50.7422 44.9808 51.0398 44.9808 51.3807C44.9808 51.7187 44.9183 52.0142 44.7933 52.267C44.6697 52.5199 44.4964 52.7166 44.2734 52.8572C44.0518 52.9979 43.7933 53.0682 43.4978 53.0682ZM43.4978 52.6165C43.7223 52.6165 43.9069 52.5589 44.0518 52.4439C44.1967 52.3288 44.3039 52.1776 44.3735 51.9901C44.4431 51.8026 44.4779 51.5994 44.4779 51.3807C44.4779 51.1619 44.4431 50.9581 44.3735 50.7692C44.3039 50.5803 44.1967 50.4276 44.0518 50.3111C43.9069 50.1946 43.7223 50.1364 43.4978 50.1364C43.2734 50.1364 43.0887 50.1946 42.9438 50.3111C42.799 50.4276 42.6917 50.5803 42.6221 50.7692C42.5525 50.9581 42.5177 51.1619 42.5177 51.3807C42.5177 51.5994 42.5525 51.8026 42.6221 51.9901C42.6917 52.1776 42.799 52.3288 42.9438 52.4439C43.0887 52.5589 43.2734 52.6165 43.4978 52.6165ZM46.2812 51.0312V53H45.7784V49.7273H46.2641V50.2386H46.3068C46.3835 50.0724 46.4999 49.9389 46.6562 49.8381C46.8124 49.7358 47.0141 49.6847 47.2613 49.6847C47.4829 49.6847 47.6768 49.7301 47.843 49.821C48.0092 49.9105 48.1384 50.0469 48.2308 50.2301C48.3231 50.4119 48.3693 50.642 48.3693 50.9205V53H47.8664V50.9545C47.8664 50.6974 47.7997 50.4972 47.6661 50.3537C47.5326 50.2088 47.3494 50.1364 47.1164 50.1364C46.9559 50.1364 46.8124 50.1712 46.686 50.2408C46.561 50.3104 46.4623 50.4119 46.3899 50.5455C46.3174 50.679 46.2812 50.8409 46.2812 51.0312Z" fill="black"/>
<path d="M23.5284 68V63.6364H24.0312V65.2472H24.0739C24.1108 65.1903 24.1619 65.1179 24.2273 65.0298C24.294 64.9403 24.3892 64.8608 24.5128 64.7912C24.6378 64.7202 24.8068 64.6847 25.0199 64.6847C25.2955 64.6847 25.5384 64.7536 25.7486 64.8913C25.9588 65.0291 26.1229 65.2244 26.2408 65.4773C26.3587 65.7301 26.4176 66.0284 26.4176 66.3722C26.4176 66.7188 26.3587 67.0192 26.2408 67.2734C26.1229 67.5263 25.9595 67.7223 25.7507 67.8615C25.5419 67.9993 25.3011 68.0682 25.0284 68.0682C24.8182 68.0682 24.6499 68.0334 24.5234 67.9638C24.397 67.8928 24.2997 67.8125 24.2315 67.723C24.1634 67.6321 24.1108 67.5568 24.0739 67.4972H24.0142V68H23.5284ZM24.0227 66.3636C24.0227 66.6108 24.0589 66.8288 24.1314 67.0178C24.2038 67.2053 24.3097 67.3523 24.4489 67.4588C24.5881 67.5639 24.7585 67.6165 24.9602 67.6165C25.1705 67.6165 25.3459 67.5611 25.4865 67.4503C25.6286 67.3381 25.7351 67.1875 25.8061 66.9986C25.8786 66.8082 25.9148 66.5966 25.9148 66.3636C25.9148 66.1335 25.8793 65.9261 25.8082 65.7415C25.7386 65.5554 25.6328 65.4084 25.4908 65.3004C25.3501 65.1911 25.1733 65.1364 24.9602 65.1364C24.7557 65.1364 24.5838 65.1882 24.4446 65.2919C24.3054 65.3942 24.2003 65.5376 24.1293 65.7223C24.0582 65.9055 24.0227 66.1193 24.0227 66.3636ZM28.1799 68.0767C27.9725 68.0767 27.7843 68.0376 27.6152 67.9595C27.4462 67.88 27.312 67.7656 27.2125 67.6165C27.1131 67.4659 27.0634 67.2841 27.0634 67.071C27.0634 66.8835 27.1003 66.7315 27.1742 66.6151C27.248 66.4972 27.3468 66.4048 27.4703 66.3381C27.5939 66.2713 27.7303 66.2216 27.8794 66.1889C28.03 66.1548 28.1813 66.1278 28.3333 66.108C28.5321 66.0824 28.6934 66.0632 28.8169 66.0504C28.9419 66.0362 29.0328 66.0128 29.0897 65.9801C29.1479 65.9474 29.177 65.8906 29.177 65.8097V65.7926C29.177 65.5824 29.1195 65.419 29.0044 65.3026C28.8908 65.1861 28.7182 65.1278 28.4867 65.1278C28.2466 65.1278 28.0584 65.1804 27.922 65.2855C27.7857 65.3906 27.6898 65.5028 27.6344 65.6222L27.1571 65.4517C27.2424 65.2528 27.356 65.098 27.498 64.9872C27.6415 64.875 27.7978 64.7969 27.9668 64.7528C28.1372 64.7074 28.3049 64.6847 28.4696 64.6847C28.5747 64.6847 28.6955 64.6974 28.8318 64.723C28.9696 64.7472 29.1024 64.7976 29.2303 64.8743C29.3595 64.951 29.4668 65.0668 29.552 65.2216C29.6372 65.3764 29.6799 65.5838 29.6799 65.8438V68H29.177V67.5568H29.1514C29.1174 67.6278 29.0605 67.7038 28.981 67.7848C28.9014 67.8658 28.7956 67.9347 28.6635 67.9915C28.5314 68.0483 28.3702 68.0767 28.1799 68.0767ZM28.2566 67.625C28.4554 67.625 28.623 67.5859 28.7594 67.5078C28.8972 67.4297 29.0009 67.3288 29.0705 67.2053C29.1415 67.0817 29.177 66.9517 29.177 66.8153V66.3551C29.1557 66.3807 29.1088 66.4041 29.0364 66.4254C28.9654 66.4453 28.883 66.4631 28.7892 66.4787C28.6969 66.4929 28.6067 66.5057 28.5186 66.517C28.432 66.527 28.3617 66.5355 28.3077 66.5426C28.177 66.5597 28.0549 66.5874 27.9412 66.6257C27.829 66.6626 27.7381 66.7187 27.6685 66.794C27.6003 66.8679 27.5662 66.9687 27.5662 67.0966C27.5662 67.2713 27.6309 67.4034 27.7601 67.4929C27.8908 67.581 28.0563 67.625 28.2566 67.625ZM31.9572 68.0682C31.6504 68.0682 31.3862 67.9957 31.1646 67.8509C30.943 67.706 30.7725 67.5064 30.6532 67.2521C30.5339 66.9979 30.4742 66.7074 30.4742 66.3807C30.4742 66.0483 30.5353 65.755 30.6575 65.5007C30.7811 65.245 30.9529 65.0455 31.1731 64.902C31.3947 64.7571 31.6532 64.6847 31.9487 64.6847C32.1788 64.6847 32.3862 64.7273 32.5708 64.8125C32.7555 64.8977 32.9068 65.017 33.0247 65.1705C33.1426 65.3239 33.2157 65.5028 33.2441 65.7074H32.7413C32.7029 65.5582 32.6177 65.4261 32.4856 65.3111C32.3549 65.1946 32.1788 65.1364 31.9572 65.1364C31.7612 65.1364 31.5893 65.1875 31.4416 65.2898C31.2953 65.3906 31.1809 65.5334 31.0985 65.718C31.0176 65.9013 30.9771 66.1165 30.9771 66.3636C30.9771 66.6165 31.0169 66.8366 31.0964 67.0241C31.1774 67.2116 31.291 67.3572 31.4373 67.4609C31.585 67.5646 31.7583 67.6165 31.9572 67.6165C32.0879 67.6165 32.2065 67.5938 32.313 67.5483C32.4196 67.5028 32.5098 67.4375 32.5836 67.3523C32.6575 67.267 32.71 67.1648 32.7413 67.0455H33.2441C33.2157 67.2386 33.1454 67.4126 33.0332 67.5675C32.9224 67.7209 32.7754 67.843 32.5921 67.9339C32.4103 68.0234 32.1987 68.0682 31.9572 68.0682ZM34.478 66.8068L34.4694 66.1847H34.5717L36.0035 64.7273H36.6257L35.1001 66.2699H35.0575L34.478 66.8068ZM34.0092 68V63.6364H34.5121V68H34.0092ZM36.0888 68L34.8103 66.3807L35.1683 66.0312L36.728 68H36.0888ZM38.4891 69.2955C38.2462 69.2955 38.0374 69.2642 37.8627 69.2017C37.688 69.1406 37.5424 69.0597 37.4259 68.9588C37.3109 68.8594 37.2193 68.7528 37.1511 68.6392L37.5516 68.358C37.5971 68.4176 37.6546 68.4858 37.7242 68.5625C37.7938 68.6406 37.889 68.7081 38.0097 68.7649C38.1319 68.8232 38.2917 68.8523 38.4891 68.8523C38.7533 68.8523 38.9714 68.7884 39.1433 68.6605C39.3151 68.5327 39.4011 68.3324 39.4011 68.0597V67.3949H39.3585C39.3215 67.4545 39.269 67.5284 39.2008 67.6165C39.134 67.7031 39.0374 67.7805 38.911 67.8487C38.786 67.9155 38.617 67.9489 38.4039 67.9489C38.1397 67.9489 37.9025 67.8864 37.6923 67.7614C37.4835 67.6364 37.318 67.4545 37.1958 67.2159C37.0751 66.9773 37.0147 66.6875 37.0147 66.3466C37.0147 66.0114 37.0737 65.7195 37.1916 65.4709C37.3095 65.2209 37.4735 65.0277 37.6837 64.8913C37.894 64.7536 38.1369 64.6847 38.4124 64.6847C38.6255 64.6847 38.7945 64.7202 38.9195 64.7912C39.046 64.8608 39.1425 64.9403 39.2093 65.0298C39.2775 65.1179 39.33 65.1903 39.367 65.2472H39.4181V64.7273H39.9039V68.0938C39.9039 68.375 39.84 68.6037 39.7122 68.7798C39.5857 68.9574 39.4153 69.0874 39.2008 69.1697C38.9877 69.2536 38.7505 69.2955 38.4891 69.2955ZM38.4721 67.4972C38.6738 67.4972 38.8443 67.451 38.9835 67.3587C39.1227 67.2663 39.2285 67.1335 39.3009 66.9602C39.3734 66.7869 39.4096 66.5795 39.4096 66.3381C39.4096 66.1023 39.3741 65.8942 39.3031 65.7138C39.232 65.5334 39.1269 65.392 38.9877 65.2898C38.8485 65.1875 38.6766 65.1364 38.4721 65.1364C38.259 65.1364 38.0815 65.1903 37.9394 65.2983C37.7988 65.4062 37.693 65.5511 37.622 65.733C37.5524 65.9148 37.5175 66.1165 37.5175 66.3381C37.5175 66.5653 37.5531 66.7663 37.6241 66.9411C37.6965 67.1143 37.8031 67.2507 37.9437 67.3501C38.0857 67.4482 38.2619 67.4972 38.4721 67.4972ZM40.8544 68V64.7273H41.3402V65.2216H41.3743C41.4339 65.0597 41.5419 64.9283 41.6981 64.8274C41.8544 64.7266 42.0305 64.6761 42.2265 64.6761C42.2635 64.6761 42.3096 64.6768 42.365 64.6783C42.4204 64.6797 42.4623 64.6818 42.4907 64.6847V65.196C42.4737 65.1918 42.4346 65.1854 42.3735 65.1768C42.3139 65.1669 42.2507 65.1619 42.1839 65.1619C42.0248 65.1619 41.8828 65.1953 41.7578 65.2621C41.6342 65.3274 41.5362 65.4183 41.4637 65.5348C41.3927 65.6499 41.3572 65.7812 41.3572 65.929V68H40.8544ZM44.3467 68.0682C44.0513 68.0682 43.792 67.9979 43.569 67.8572C43.3474 67.7166 43.1741 67.5199 43.0491 67.267C42.9256 67.0142 42.8638 66.7187 42.8638 66.3807C42.8638 66.0398 42.9256 65.7422 43.0491 65.4879C43.1741 65.2337 43.3474 65.0362 43.569 64.8956C43.792 64.755 44.0513 64.6847 44.3467 64.6847C44.6422 64.6847 44.9007 64.755 45.1223 64.8956C45.3453 65.0362 45.5186 65.2337 45.6422 65.4879C45.7672 65.7422 45.8297 66.0398 45.8297 66.3807C45.8297 66.7187 45.7672 67.0142 45.6422 67.267C45.5186 67.5199 45.3453 67.7166 45.1223 67.8572C44.9007 67.9979 44.6422 68.0682 44.3467 68.0682ZM44.3467 67.6165C44.5712 67.6165 44.7558 67.5589 44.9007 67.4439C45.0456 67.3288 45.1528 67.1776 45.2224 66.9901C45.292 66.8026 45.3268 66.5994 45.3268 66.3807C45.3268 66.1619 45.292 65.9581 45.2224 65.7692C45.1528 65.5803 45.0456 65.4276 44.9007 65.3111C44.7558 65.1946 44.5712 65.1364 44.3467 65.1364C44.1223 65.1364 43.9376 65.1946 43.7927 65.3111C43.6479 65.4276 43.5406 65.5803 43.471 65.7692C43.4014 65.9581 43.3666 66.1619 43.3666 66.3807C43.3666 66.5994 43.4014 66.8026 43.471 66.9901C43.5406 67.1776 43.6479 67.3288 43.7927 67.4439C43.9376 67.5589 44.1223 67.6165 44.3467 67.6165ZM48.6898 66.6619V64.7273H49.1926V68H48.6898V67.446H48.6557C48.579 67.6122 48.4596 67.7536 48.2977 67.87C48.1358 67.9851 47.9312 68.0426 47.6841 68.0426C47.4795 68.0426 47.2977 67.9979 47.1386 67.9084C46.9795 67.8175 46.8545 67.6811 46.7636 67.4993C46.6727 67.3161 46.6273 67.0852 46.6273 66.8068V64.7273H47.1301V66.7727C47.1301 67.0114 47.1969 67.2017 47.3304 67.3438C47.4653 67.4858 47.6372 67.5568 47.846 67.5568C47.971 67.5568 48.0981 67.5249 48.2274 67.4609C48.3581 67.397 48.4675 67.299 48.5555 67.1669C48.645 67.0348 48.6898 66.8665 48.6898 66.6619ZM50.6464 66.0312V68H50.1436V64.7273H50.6294V65.2386H50.672C50.7487 65.0724 50.8652 64.9389 51.0214 64.8381C51.1777 64.7358 51.3794 64.6847 51.6265 64.6847C51.8481 64.6847 52.042 64.7301 52.2082 64.821C52.3744 64.9105 52.5037 65.0469 52.596 65.2301C52.6883 65.4119 52.7345 65.642 52.7345 65.9205V68H52.2317V65.9545C52.2317 65.6974 52.1649 65.4972 52.0314 65.3537C51.8978 65.2088 51.7146 65.1364 51.4817 65.1364C51.3211 65.1364 51.1777 65.1712 51.0513 65.2408C50.9263 65.3104 50.8275 65.4119 50.7551 65.5455C50.6826 65.679 50.6464 65.8409 50.6464 66.0312ZM54.9191 68.0682C54.6464 68.0682 54.4057 67.9993 54.1968 67.8615C53.988 67.7223 53.8247 67.5263 53.7068 67.2734C53.5889 67.0192 53.5299 66.7188 53.5299 66.3722C53.5299 66.0284 53.5889 65.7301 53.7068 65.4773C53.8247 65.2244 53.9888 65.0291 54.199 64.8913C54.4092 64.7536 54.6521 64.6847 54.9277 64.6847C55.1407 64.6847 55.3091 64.7202 55.4326 64.7912C55.5576 64.8608 55.6528 64.9403 55.7182 65.0298C55.7849 65.1179 55.8368 65.1903 55.8737 65.2472H55.9163V63.6364H56.4191V68H55.9334V67.4972H55.8737C55.8368 67.5568 55.7842 67.6321 55.716 67.723C55.6478 67.8125 55.5505 67.8928 55.4241 67.9638C55.2977 68.0334 55.1294 68.0682 54.9191 68.0682ZM54.9873 67.6165C55.189 67.6165 55.3595 67.5639 55.4987 67.4588C55.6379 67.3523 55.7437 67.2053 55.8162 67.0178C55.8886 66.8288 55.9248 66.6108 55.9248 66.3636C55.9248 66.1193 55.8893 65.9055 55.8183 65.7223C55.7473 65.5376 55.6422 65.3942 55.503 65.2919C55.3638 65.1882 55.1919 65.1364 54.9873 65.1364C54.7743 65.1364 54.5967 65.1911 54.4547 65.3004C54.314 65.4084 54.2082 65.5554 54.1372 65.7415C54.0676 65.9261 54.0328 66.1335 54.0328 66.3636C54.0328 66.5966 54.0683 66.8082 54.1393 66.9986C54.2118 67.1875 54.3183 67.3381 54.4589 67.4503C54.601 67.5611 54.7771 67.6165 54.9873 67.6165Z" fill="black"/>
<path d="M23.5284 83V78.6364H24.0312V80.2472H24.0739C24.1108 80.1903 24.1619 80.1179 24.2273 80.0298C24.294 79.9403 24.3892 79.8608 24.5128 79.7912C24.6378 79.7202 24.8068 79.6847 25.0199 79.6847C25.2955 79.6847 25.5384 79.7536 25.7486 79.8913C25.9588 80.0291 26.1229 80.2244 26.2408 80.4773C26.3587 80.7301 26.4176 81.0284 26.4176 81.3722C26.4176 81.7188 26.3587 82.0192 26.2408 82.2734C26.1229 82.5263 25.9595 82.7223 25.7507 82.8615C25.5419 82.9993 25.3011 83.0682 25.0284 83.0682C24.8182 83.0682 24.6499 83.0334 24.5234 82.9638C24.397 82.8928 24.2997 82.8125 24.2315 82.723C24.1634 82.6321 24.1108 82.5568 24.0739 82.4972H24.0142V83H23.5284ZM24.0227 81.3636C24.0227 81.6108 24.0589 81.8288 24.1314 82.0178C24.2038 82.2053 24.3097 82.3523 24.4489 82.4588C24.5881 82.5639 24.7585 82.6165 24.9602 82.6165C25.1705 82.6165 25.3459 82.5611 25.4865 82.4503C25.6286 82.3381 25.7351 82.1875 25.8061 81.9986C25.8786 81.8082 25.9148 81.5966 25.9148 81.3636C25.9148 81.1335 25.8793 80.9261 25.8082 80.7415C25.7386 80.5554 25.6328 80.4084 25.4908 80.3004C25.3501 80.1911 25.1733 80.1364 24.9602 80.1364C24.7557 80.1364 24.5838 80.1882 24.4446 80.2919C24.3054 80.3942 24.2003 80.5376 24.1293 80.7223C24.0582 80.9055 24.0227 81.1193 24.0227 81.3636ZM29.2793 81.6619V79.7273H29.7821V83H29.2793V82.446H29.2452C29.1685 82.6122 29.0492 82.7536 28.8872 82.87C28.7253 82.9851 28.5208 83.0426 28.2736 83.0426C28.0691 83.0426 27.8872 82.9979 27.7282 82.9084C27.5691 82.8175 27.4441 82.6811 27.3532 82.4993C27.2622 82.3161 27.2168 82.0852 27.2168 81.8068V79.7273H27.7196V81.7727C27.7196 82.0114 27.7864 82.2017 27.9199 82.3438C28.0549 82.4858 28.2267 82.5568 28.4355 82.5568C28.5605 82.5568 28.6877 82.5249 28.8169 82.4609C28.9476 82.397 29.057 82.299 29.1451 82.1669C29.2345 82.0348 29.2793 81.8665 29.2793 81.6619ZM32.1564 79.7273V80.1534H30.4604V79.7273H32.1564ZM30.9547 78.9432H31.4575V82.0625C31.4575 82.2045 31.4781 82.3111 31.5193 82.3821C31.562 82.4517 31.6159 82.4986 31.6813 82.5227C31.748 82.5455 31.8183 82.5568 31.8922 82.5568C31.9476 82.5568 31.9931 82.554 32.0286 82.5483C32.0641 82.5412 32.0925 82.5355 32.1138 82.5312L32.2161 82.983C32.182 82.9957 32.1344 83.0085 32.0733 83.0213C32.0122 83.0355 31.9348 83.0426 31.8411 83.0426C31.699 83.0426 31.5598 83.0121 31.4235 82.951C31.2885 82.8899 31.1763 82.7969 31.0868 82.6719C30.9987 82.5469 30.9547 82.3892 30.9547 82.1989V78.9432ZM34.3661 79.7273V80.1534H32.6701V79.7273H34.3661ZM33.1644 78.9432H33.6672V82.0625C33.6672 82.2045 33.6878 82.3111 33.729 82.3821C33.7716 82.4517 33.8256 82.4986 33.891 82.5227C33.9577 82.5455 34.028 82.5568 34.1019 82.5568C34.1573 82.5568 34.2027 82.554 34.2383 82.5483C34.2738 82.5412 34.3022 82.5355 34.3235 82.5312L34.4258 82.983C34.3917 82.9957 34.3441 83.0085 34.283 83.0213C34.2219 83.0355 34.1445 83.0426 34.0508 83.0426C33.9087 83.0426 33.7695 83.0121 33.6331 82.951C33.4982 82.8899 33.386 82.7969 33.2965 82.6719C33.2084 82.5469 33.1644 82.3892 33.1644 82.1989V78.9432ZM36.4469 83.0682C36.1514 83.0682 35.8922 82.9979 35.6692 82.8572C35.4476 82.7166 35.2743 82.5199 35.1493 82.267C35.0257 82.0142 34.9639 81.7187 34.9639 81.3807C34.9639 81.0398 35.0257 80.7422 35.1493 80.4879C35.2743 80.2337 35.4476 80.0362 35.6692 79.8956C35.8922 79.755 36.1514 79.6847 36.4469 79.6847C36.7423 79.6847 37.0009 79.755 37.2225 79.8956C37.4455 80.0362 37.6188 80.2337 37.7423 80.4879C37.8673 80.7422 37.9298 81.0398 37.9298 81.3807C37.9298 81.7187 37.8673 82.0142 37.7423 82.267C37.6188 82.5199 37.4455 82.7166 37.2225 82.8572C37.0009 82.9979 36.7423 83.0682 36.4469 83.0682ZM36.4469 82.6165C36.6713 82.6165 36.856 82.5589 37.0009 82.4439C37.1457 82.3288 37.253 82.1776 37.3226 81.9901C37.3922 81.8026 37.427 81.5994 37.427 81.3807C37.427 81.1619 37.3922 80.9581 37.3226 80.7692C37.253 80.5803 37.1457 80.4276 37.0009 80.3111C36.856 80.1946 36.6713 80.1364 36.4469 80.1364C36.2225 80.1364 36.0378 80.1946 35.8929 80.3111C35.748 80.4276 35.6408 80.5803 35.5712 80.7692C35.5016 80.9581 35.4668 81.1619 35.4668 81.3807C35.4668 81.5994 35.5016 81.8026 35.5712 81.9901C35.6408 82.1776 35.748 82.3288 35.8929 82.4439C36.0378 82.5589 36.2225 82.6165 36.4469 82.6165ZM39.2303 81.0312V83H38.7274V79.7273H39.2132V80.2386H39.2558C39.3325 80.0724 39.449 79.9389 39.6053 79.8381C39.7615 79.7358 39.9632 79.6847 40.2104 79.6847C40.432 79.6847 40.6259 79.7301 40.792 79.821C40.9582 79.9105 41.0875 80.0469 41.1798 80.2301C41.2722 80.4119 41.3183 80.642 41.3183 80.9205V83H40.8155V80.9545C40.8155 80.6974 40.7487 80.4972 40.6152 80.3537C40.4817 80.2088 40.2984 80.1364 40.0655 80.1364C39.905 80.1364 39.7615 80.1712 39.6351 80.2408C39.5101 80.3104 39.4114 80.4119 39.3389 80.5455C39.2665 80.679 39.2303 80.8409 39.2303 81.0312Z" fill="black"/>
<rect x="177" y="45" width="52" height="12" fill="white"/>
<rect x="177.25" y="45.25" width="51.5" height="11.5" stroke="black" stroke-opacity="0.1" stroke-width="0.5"/>
<rect x="177" y="60" width="52" height="12" fill="white"/>
<rect x="177.25" y="60.25" width="51.5" height="11.5" stroke="black" stroke-opacity="0.1" stroke-width="0.5"/>
<rect x="177" y="75" width="52" height="12" fill="white"/>
<rect x="177.25" y="75.25" width="51.5" height="11.5" stroke="black" stroke-opacity="0.1" stroke-width="0.5"/>
<circle cx="183" cy="51" r="3" fill="#495878"/>
<circle cx="183" cy="66" r="3" fill="#2C2C2C"/>
<circle cx="183" cy="81" r="3" fill="#0C8CE9"/>
<path d="M191.778 50.4602L191.327 50.5881C191.298 50.5128 191.256 50.4396 191.201 50.3686C191.147 50.2962 191.073 50.2365 190.979 50.1896C190.886 50.1428 190.766 50.1193 190.619 50.1193C190.419 50.1193 190.252 50.1655 190.119 50.2578C189.987 50.3487 189.92 50.4645 189.92 50.6051C189.92 50.7301 189.966 50.8288 190.057 50.9013C190.148 50.9737 190.29 51.0341 190.483 51.0824L190.969 51.2017C191.261 51.2727 191.479 51.3814 191.623 51.5277C191.766 51.6726 191.838 51.8594 191.838 52.0881C191.838 52.2756 191.784 52.4432 191.676 52.5909C191.57 52.7386 191.42 52.8551 191.229 52.9403C191.037 53.0256 190.814 53.0682 190.56 53.0682C190.226 53.0682 189.95 52.9957 189.731 52.8509C189.512 52.706 189.374 52.4943 189.315 52.2159L189.793 52.0966C189.838 52.2727 189.924 52.4048 190.05 52.4929C190.178 52.581 190.345 52.625 190.551 52.625C190.786 52.625 190.972 52.5753 191.109 52.4759C191.249 52.375 191.318 52.2543 191.318 52.1136C191.318 52 191.278 51.9048 191.199 51.8281C191.119 51.75 190.997 51.6918 190.832 51.6534L190.287 51.5256C189.987 51.4545 189.767 51.3445 189.626 51.1953C189.487 51.0447 189.418 50.8565 189.418 50.6307C189.418 50.446 189.469 50.2827 189.573 50.1406C189.678 49.9986 189.821 49.8871 190.001 49.8061C190.183 49.7251 190.389 49.6847 190.619 49.6847C190.943 49.6847 191.197 49.7557 191.382 49.8977C191.568 50.0398 191.7 50.2273 191.778 50.4602ZM193.997 53.0682C193.682 53.0682 193.41 52.9986 193.181 52.8594C192.954 52.7188 192.778 52.5227 192.655 52.2713C192.533 52.0185 192.472 51.7244 192.472 51.3892C192.472 51.054 192.533 50.7585 192.655 50.5028C192.778 50.2457 192.95 50.0455 193.17 49.902C193.392 49.7571 193.651 49.6847 193.946 49.6847C194.116 49.6847 194.285 49.7131 194.451 49.7699C194.617 49.8267 194.768 49.919 194.905 50.0469C195.041 50.1733 195.15 50.3409 195.231 50.5497C195.312 50.7585 195.352 51.0156 195.352 51.321V51.5341H192.83V51.0994H194.841C194.841 50.9148 194.804 50.75 194.73 50.6051C194.658 50.4602 194.554 50.3459 194.419 50.2621C194.286 50.1783 194.128 50.1364 193.946 50.1364C193.746 50.1364 193.572 50.1861 193.426 50.2855C193.281 50.3835 193.17 50.5114 193.092 50.669C193.013 50.8267 192.974 50.9957 192.974 51.1761V51.4659C192.974 51.7131 193.017 51.9226 193.102 52.0945C193.189 52.2649 193.309 52.3949 193.462 52.4844C193.616 52.5724 193.794 52.6165 193.997 52.6165C194.129 52.6165 194.249 52.598 194.355 52.5611C194.463 52.5227 194.556 52.4659 194.634 52.3906C194.712 52.3139 194.773 52.2187 194.815 52.1051L195.301 52.2415C195.25 52.4062 195.164 52.5511 195.043 52.6761C194.923 52.7997 194.773 52.8963 194.596 52.9659C194.418 53.0341 194.219 53.0682 193.997 53.0682ZM196.65 48.6364V53H196.147V48.6364H196.65ZM198.973 53.0682C198.658 53.0682 198.386 52.9986 198.157 52.8594C197.93 52.7188 197.754 52.5227 197.631 52.2713C197.509 52.0185 197.448 51.7244 197.448 51.3892C197.448 51.054 197.509 50.7585 197.631 50.5028C197.754 50.2457 197.926 50.0455 198.146 49.902C198.368 49.7571 198.627 49.6847 198.922 49.6847C199.092 49.6847 199.261 49.7131 199.427 49.7699C199.593 49.8267 199.744 49.919 199.881 50.0469C200.017 50.1733 200.126 50.3409 200.207 50.5497C200.288 50.7585 200.328 51.0156 200.328 51.321V51.5341H197.806V51.0994H199.817C199.817 50.9148 199.78 50.75 199.706 50.6051C199.634 50.4602 199.53 50.3459 199.395 50.2621C199.262 50.1783 199.104 50.1364 198.922 50.1364C198.722 50.1364 198.548 50.1861 198.402 50.2855C198.257 50.3835 198.146 50.5114 198.068 50.669C197.99 50.8267 197.95 50.9957 197.95 51.1761V51.4659C197.95 51.7131 197.993 51.9226 198.078 52.0945C198.165 52.2649 198.285 52.3949 198.438 52.4844C198.592 52.5724 198.77 52.6165 198.973 52.6165C199.105 52.6165 199.225 52.598 199.331 52.5611C199.439 52.5227 199.532 52.4659 199.61 52.3906C199.688 52.3139 199.749 52.2187 199.791 52.1051L200.277 52.2415C200.226 52.4062 200.14 52.5511 200.019 52.6761C199.899 52.7997 199.749 52.8963 199.572 52.9659C199.394 53.0341 199.195 53.0682 198.973 53.0682ZM202.453 53.0682C202.146 53.0682 201.882 52.9957 201.66 52.8509C201.439 52.706 201.268 52.5064 201.149 52.2521C201.029 51.9979 200.97 51.7074 200.97 51.3807C200.97 51.0483 201.031 50.755 201.153 50.5007C201.277 50.245 201.448 50.0455 201.669 49.902C201.89 49.7571 202.149 49.6847 202.444 49.6847C202.674 49.6847 202.882 49.7273 203.066 49.8125C203.251 49.8977 203.402 50.017 203.52 50.1705C203.638 50.3239 203.711 50.5028 203.74 50.7074H203.237C203.198 50.5582 203.113 50.4261 202.981 50.3111C202.85 50.1946 202.674 50.1364 202.453 50.1364C202.257 50.1364 202.085 50.1875 201.937 50.2898C201.791 50.3906 201.676 50.5334 201.594 50.718C201.513 50.9013 201.473 51.1165 201.473 51.3636C201.473 51.6165 201.512 51.8366 201.592 52.0241C201.673 52.2116 201.787 52.3572 201.933 52.4609C202.081 52.5646 202.254 52.6165 202.453 52.6165C202.583 52.6165 202.702 52.5938 202.809 52.5483C202.915 52.5028 203.005 52.4375 203.079 52.3523C203.153 52.267 203.206 52.1648 203.237 52.0455H203.74C203.711 52.2386 203.641 52.4126 203.529 52.5675C203.418 52.7209 203.271 52.843 203.088 52.9339C202.906 53.0234 202.694 53.0682 202.453 53.0682ZM205.928 49.7273V50.1534H204.232V49.7273H205.928ZM204.726 48.9432H205.229V52.0625C205.229 52.2045 205.25 52.3111 205.291 52.3821C205.334 52.4517 205.388 52.4986 205.453 52.5227C205.52 52.5455 205.59 52.5568 205.664 52.5568C205.719 52.5568 205.765 52.554 205.8 52.5483C205.836 52.5412 205.864 52.5355 205.885 52.5312L205.988 52.983C205.954 52.9957 205.906 53.0085 205.845 53.0213C205.784 53.0355 205.706 53.0426 205.613 53.0426C205.471 53.0426 205.331 53.0121 205.195 52.951C205.06 52.8899 204.948 52.7969 204.858 52.6719C204.77 52.5469 204.726 52.3892 204.726 52.1989V48.9432ZM206.714 53V49.7273H207.217V53H206.714ZM206.97 49.1818C206.872 49.1818 206.788 49.1484 206.717 49.0817C206.647 49.0149 206.612 48.9347 206.612 48.8409C206.612 48.7472 206.647 48.6669 206.717 48.6001C206.788 48.5334 206.872 48.5 206.97 48.5C207.068 48.5 207.152 48.5334 207.222 48.6001C207.293 48.6669 207.328 48.7472 207.328 48.8409C207.328 48.9347 207.293 49.0149 207.222 49.0817C207.152 49.1484 207.068 49.1818 206.97 49.1818ZM209.498 53.0682C209.202 53.0682 208.943 52.9979 208.72 52.8572C208.499 52.7166 208.325 52.5199 208.2 52.267C208.077 52.0142 208.015 51.7187 208.015 51.3807C208.015 51.0398 208.077 50.7422 208.2 50.4879C208.325 50.2337 208.499 50.0362 208.72 49.8956C208.943 49.755 209.202 49.6847 209.498 49.6847C209.793 49.6847 210.052 49.755 210.273 49.8956C210.496 50.0362 210.67 50.2337 210.793 50.4879C210.918 50.7422 210.981 51.0398 210.981 51.3807C210.981 51.7187 210.918 52.0142 210.793 52.267C210.67 52.5199 210.496 52.7166 210.273 52.8572C210.052 52.9979 209.793 53.0682 209.498 53.0682ZM209.498 52.6165C209.722 52.6165 209.907 52.5589 210.052 52.4439C210.197 52.3288 210.304 52.1776 210.374 51.9901C210.443 51.8026 210.478 51.5994 210.478 51.3807C210.478 51.1619 210.443 50.9581 210.374 50.7692C210.304 50.5803 210.197 50.4276 210.052 50.3111C209.907 50.1946 209.722 50.1364 209.498 50.1364C209.273 50.1364 209.089 50.1946 208.944 50.3111C208.799 50.4276 208.692 50.5803 208.622 50.7692C208.553 50.9581 208.518 51.1619 208.518 51.3807C208.518 51.5994 208.553 51.8026 208.622 51.9901C208.692 52.1776 208.799 52.3288 208.944 52.4439C209.089 52.5589 209.273 52.6165 209.498 52.6165ZM212.281 51.0312V53H211.778V49.7273H212.264V50.2386H212.307C212.383 50.0724 212.5 49.9389 212.656 49.8381C212.812 49.7358 213.014 49.6847 213.261 49.6847C213.483 49.6847 213.677 49.7301 213.843 49.821C214.009 49.9105 214.138 50.0469 214.231 50.2301C214.323 50.4119 214.369 50.642 214.369 50.9205V53H213.866V50.9545C213.866 50.6974 213.8 50.4972 213.666 50.3537C213.533 50.2088 213.349 50.1364 213.116 50.1364C212.956 50.1364 212.812 50.1712 212.686 50.2408C212.561 50.3104 212.462 50.4119 212.39 50.5455C212.317 50.679 212.281 50.8409 212.281 51.0312Z" fill="black"/>
<path d="M189.528 68V63.6364H190.031V65.2472H190.074C190.111 65.1903 190.162 65.1179 190.227 65.0298C190.294 64.9403 190.389 64.8608 190.513 64.7912C190.638 64.7202 190.807 64.6847 191.02 64.6847C191.295 64.6847 191.538 64.7536 191.749 64.8913C191.959 65.0291 192.123 65.2244 192.241 65.4773C192.359 65.7301 192.418 66.0284 192.418 66.3722C192.418 66.7188 192.359 67.0192 192.241 67.2734C192.123 67.5263 191.96 67.7223 191.751 67.8615C191.542 67.9993 191.301 68.0682 191.028 68.0682C190.818 68.0682 190.65 68.0334 190.523 67.9638C190.397 67.8928 190.3 67.8125 190.232 67.723C190.163 67.6321 190.111 67.5568 190.074 67.4972H190.014V68H189.528ZM190.023 66.3636C190.023 66.6108 190.059 66.8288 190.131 67.0178C190.204 67.2053 190.31 67.3523 190.449 67.4588C190.588 67.5639 190.759 67.6165 190.96 67.6165C191.17 67.6165 191.346 67.5611 191.487 67.4503C191.629 67.3381 191.735 67.1875 191.806 66.9986C191.879 66.8082 191.915 66.5966 191.915 66.3636C191.915 66.1335 191.879 65.9261 191.808 65.7415C191.739 65.5554 191.633 65.4084 191.491 65.3004C191.35 65.1911 191.173 65.1364 190.96 65.1364C190.756 65.1364 190.584 65.1882 190.445 65.2919C190.305 65.3942 190.2 65.5376 190.129 65.7223C190.058 65.9055 190.023 66.1193 190.023 66.3636ZM194.18 68.0767C193.972 68.0767 193.784 68.0376 193.615 67.9595C193.446 67.88 193.312 67.7656 193.213 67.6165C193.113 67.4659 193.063 67.2841 193.063 67.071C193.063 66.8835 193.1 66.7315 193.174 66.6151C193.248 66.4972 193.347 66.4048 193.47 66.3381C193.594 66.2713 193.73 66.2216 193.879 66.1889C194.03 66.1548 194.181 66.1278 194.333 66.108C194.532 66.0824 194.693 66.0632 194.817 66.0504C194.942 66.0362 195.033 66.0128 195.09 65.9801C195.148 65.9474 195.177 65.8906 195.177 65.8097V65.7926C195.177 65.5824 195.119 65.419 195.004 65.3026C194.891 65.1861 194.718 65.1278 194.487 65.1278C194.247 65.1278 194.058 65.1804 193.922 65.2855C193.786 65.3906 193.69 65.5028 193.634 65.6222L193.157 65.4517C193.242 65.2528 193.356 65.098 193.498 64.9872C193.642 64.875 193.798 64.7969 193.967 64.7528C194.137 64.7074 194.305 64.6847 194.47 64.6847C194.575 64.6847 194.695 64.6974 194.832 64.723C194.97 64.7472 195.102 64.7976 195.23 64.8743C195.36 64.951 195.467 65.0668 195.552 65.2216C195.637 65.3764 195.68 65.5838 195.68 65.8438V68H195.177V67.5568H195.151C195.117 67.6278 195.061 67.7038 194.981 67.7848C194.901 67.8658 194.796 67.9347 194.664 67.9915C194.531 68.0483 194.37 68.0767 194.18 68.0767ZM194.257 67.625C194.455 67.625 194.623 67.5859 194.759 67.5078C194.897 67.4297 195.001 67.3288 195.07 67.2053C195.142 67.0817 195.177 66.9517 195.177 66.8153V66.3551C195.156 66.3807 195.109 66.4041 195.036 66.4254C194.965 66.4453 194.883 66.4631 194.789 66.4787C194.697 66.4929 194.607 66.5057 194.519 66.517C194.432 66.527 194.362 66.5355 194.308 66.5426C194.177 66.5597 194.055 66.5874 193.941 66.6257C193.829 66.6626 193.738 66.7187 193.668 66.794C193.6 66.8679 193.566 66.9687 193.566 67.0966C193.566 67.2713 193.631 67.4034 193.76 67.4929C193.891 67.581 194.056 67.625 194.257 67.625ZM197.957 68.0682C197.65 68.0682 197.386 67.9957 197.165 67.8509C196.943 67.706 196.773 67.5064 196.653 67.2521C196.534 66.9979 196.474 66.7074 196.474 66.3807C196.474 66.0483 196.535 65.755 196.657 65.5007C196.781 65.245 196.953 65.0455 197.173 64.902C197.395 64.7571 197.653 64.6847 197.949 64.6847C198.179 64.6847 198.386 64.7273 198.571 64.8125C198.755 64.8977 198.907 65.017 199.025 65.1705C199.143 65.3239 199.216 65.5028 199.244 65.7074H198.741C198.703 65.5582 198.618 65.4261 198.486 65.3111C198.355 65.1946 198.179 65.1364 197.957 65.1364C197.761 65.1364 197.589 65.1875 197.442 65.2898C197.295 65.3906 197.181 65.5334 197.099 65.718C197.018 65.9013 196.977 66.1165 196.977 66.3636C196.977 66.6165 197.017 66.8366 197.096 67.0241C197.177 67.2116 197.291 67.3572 197.437 67.4609C197.585 67.5646 197.758 67.6165 197.957 67.6165C198.088 67.6165 198.206 67.5938 198.313 67.5483C198.42 67.5028 198.51 67.4375 198.584 67.3523C198.657 67.267 198.71 67.1648 198.741 67.0455H199.244C199.216 67.2386 199.145 67.4126 199.033 67.5675C198.922 67.7209 198.775 67.843 198.592 67.9339C198.41 68.0234 198.199 68.0682 197.957 68.0682ZM200.478 66.8068L200.469 66.1847H200.572L202.004 64.7273H202.626L201.1 66.2699H201.058L200.478 66.8068ZM200.009 68V63.6364H200.512V68H200.009ZM202.089 68L200.81 66.3807L201.168 66.0312L202.728 68H202.089ZM204.489 69.2955C204.246 69.2955 204.037 69.2642 203.863 69.2017C203.688 69.1406 203.542 69.0597 203.426 68.9588C203.311 68.8594 203.219 68.7528 203.151 68.6392L203.552 68.358C203.597 68.4176 203.655 68.4858 203.724 68.5625C203.794 68.6406 203.889 68.7081 204.01 68.7649C204.132 68.8232 204.292 68.8523 204.489 68.8523C204.753 68.8523 204.971 68.7884 205.143 68.6605C205.315 68.5327 205.401 68.3324 205.401 68.0597V67.3949H205.358C205.322 67.4545 205.269 67.5284 205.201 67.6165C205.134 67.7031 205.037 67.7805 204.911 67.8487C204.786 67.9155 204.617 67.9489 204.404 67.9489C204.14 67.9489 203.902 67.8864 203.692 67.7614C203.483 67.6364 203.318 67.4545 203.196 67.2159C203.075 66.9773 203.015 66.6875 203.015 66.3466C203.015 66.0114 203.074 65.7195 203.192 65.4709C203.309 65.2209 203.474 65.0277 203.684 64.8913C203.894 64.7536 204.137 64.6847 204.412 64.6847C204.626 64.6847 204.795 64.7202 204.92 64.7912C205.046 64.8608 205.143 64.9403 205.209 65.0298C205.277 65.1179 205.33 65.1903 205.367 65.2472H205.418V64.7273H205.904V68.0938C205.904 68.375 205.84 68.6037 205.712 68.7798C205.586 68.9574 205.415 69.0874 205.201 69.1697C204.988 69.2536 204.751 69.2955 204.489 69.2955ZM204.472 67.4972C204.674 67.4972 204.844 67.451 204.983 67.3587C205.123 67.2663 205.228 67.1335 205.301 66.9602C205.373 66.7869 205.41 66.5795 205.41 66.3381C205.41 66.1023 205.374 65.8942 205.303 65.7138C205.232 65.5334 205.127 65.392 204.988 65.2898C204.849 65.1875 204.677 65.1364 204.472 65.1364C204.259 65.1364 204.081 65.1903 203.939 65.2983C203.799 65.4062 203.693 65.5511 203.622 65.733C203.552 65.9148 203.518 66.1165 203.518 66.3381C203.518 66.5653 203.553 66.7663 203.624 66.9411C203.697 67.1143 203.803 67.2507 203.944 67.3501C204.086 67.4482 204.262 67.4972 204.472 67.4972ZM206.854 68V64.7273H207.34V65.2216H207.374C207.434 65.0597 207.542 64.9283 207.698 64.8274C207.854 64.7266 208.031 64.6761 208.227 64.6761C208.263 64.6761 208.31 64.6768 208.365 64.6783C208.42 64.6797 208.462 64.6818 208.491 64.6847V65.196C208.474 65.1918 208.435 65.1854 208.374 65.1768C208.314 65.1669 208.251 65.1619 208.184 65.1619C208.025 65.1619 207.883 65.1953 207.758 65.2621C207.634 65.3274 207.536 65.4183 207.464 65.5348C207.393 65.6499 207.357 65.7812 207.357 65.929V68H206.854ZM210.347 68.0682C210.051 68.0682 209.792 67.9979 209.569 67.8572C209.347 67.7166 209.174 67.5199 209.049 67.267C208.926 67.0142 208.864 66.7187 208.864 66.3807C208.864 66.0398 208.926 65.7422 209.049 65.4879C209.174 65.2337 209.347 65.0362 209.569 64.8956C209.792 64.755 210.051 64.6847 210.347 64.6847C210.642 64.6847 210.901 64.755 211.122 64.8956C211.345 65.0362 211.519 65.2337 211.642 65.4879C211.767 65.7422 211.83 66.0398 211.83 66.3807C211.83 66.7187 211.767 67.0142 211.642 67.267C211.519 67.5199 211.345 67.7166 211.122 67.8572C210.901 67.9979 210.642 68.0682 210.347 68.0682ZM210.347 67.6165C210.571 67.6165 210.756 67.5589 210.901 67.4439C211.046 67.3288 211.153 67.1776 211.222 66.9901C211.292 66.8026 211.327 66.5994 211.327 66.3807C211.327 66.1619 211.292 65.9581 211.222 65.7692C211.153 65.5803 211.046 65.4276 210.901 65.3111C210.756 65.1946 210.571 65.1364 210.347 65.1364C210.122 65.1364 209.938 65.1946 209.793 65.3111C209.648 65.4276 209.541 65.5803 209.471 65.7692C209.401 65.9581 209.367 66.1619 209.367 66.3807C209.367 66.5994 209.401 66.8026 209.471 66.9901C209.541 67.1776 209.648 67.3288 209.793 67.4439C209.938 67.5589 210.122 67.6165 210.347 67.6165ZM214.69 66.6619V64.7273H215.193V68H214.69V67.446H214.656C214.579 67.6122 214.46 67.7536 214.298 67.87C214.136 67.9851 213.931 68.0426 213.684 68.0426C213.48 68.0426 213.298 67.9979 213.139 67.9084C212.98 67.8175 212.855 67.6811 212.764 67.4993C212.673 67.3161 212.627 67.0852 212.627 66.8068V64.7273H213.13V66.7727C213.13 67.0114 213.197 67.2017 213.33 67.3438C213.465 67.4858 213.637 67.5568 213.846 67.5568C213.971 67.5568 214.098 67.5249 214.227 67.4609C214.358 67.397 214.467 67.299 214.556 67.1669C214.645 67.0348 214.69 66.8665 214.69 66.6619ZM216.646 66.0312V68H216.144V64.7273H216.629V65.2386H216.672C216.749 65.0724 216.865 64.9389 217.021 64.8381C217.178 64.7358 217.379 64.6847 217.627 64.6847C217.848 64.6847 218.042 64.7301 218.208 64.821C218.374 64.9105 218.504 65.0469 218.596 65.2301C218.688 65.4119 218.734 65.642 218.734 65.9205V68H218.232V65.9545C218.232 65.6974 218.165 65.4972 218.031 65.3537C217.898 65.2088 217.715 65.1364 217.482 65.1364C217.321 65.1364 217.178 65.1712 217.051 65.2408C216.926 65.3104 216.828 65.4119 216.755 65.5455C216.683 65.679 216.646 65.8409 216.646 66.0312ZM220.919 68.0682C220.646 68.0682 220.406 67.9993 220.197 67.8615C219.988 67.7223 219.825 67.5263 219.707 67.2734C219.589 67.0192 219.53 66.7188 219.53 66.3722C219.53 66.0284 219.589 65.7301 219.707 65.4773C219.825 65.2244 219.989 65.0291 220.199 64.8913C220.409 64.7536 220.652 64.6847 220.928 64.6847C221.141 64.6847 221.309 64.7202 221.433 64.7912C221.558 64.8608 221.653 64.9403 221.718 65.0298C221.785 65.1179 221.837 65.1903 221.874 65.2472H221.916V63.6364H222.419V68H221.933V67.4972H221.874C221.837 67.5568 221.784 67.6321 221.716 67.723C221.648 67.8125 221.551 67.8928 221.424 67.9638C221.298 68.0334 221.129 68.0682 220.919 68.0682ZM220.987 67.6165C221.189 67.6165 221.359 67.5639 221.499 67.4588C221.638 67.3523 221.744 67.2053 221.816 67.0178C221.889 66.8288 221.925 66.6108 221.925 66.3636C221.925 66.1193 221.889 65.9055 221.818 65.7223C221.747 65.5376 221.642 65.3942 221.503 65.2919C221.364 65.1882 221.192 65.1364 220.987 65.1364C220.774 65.1364 220.597 65.1911 220.455 65.3004C220.314 65.4084 220.208 65.5554 220.137 65.7415C220.068 65.9261 220.033 66.1335 220.033 66.3636C220.033 66.5966 220.068 66.8082 220.139 66.9986C220.212 67.1875 220.318 67.3381 220.459 67.4503C220.601 67.5611 220.777 67.6165 220.987 67.6165Z" fill="black"/>
<path d="M189.528 83V78.6364H190.031V80.2472H190.074C190.111 80.1903 190.162 80.1179 190.227 80.0298C190.294 79.9403 190.389 79.8608 190.513 79.7912C190.638 79.7202 190.807 79.6847 191.02 79.6847C191.295 79.6847 191.538 79.7536 191.749 79.8913C191.959 80.0291 192.123 80.2244 192.241 80.4773C192.359 80.7301 192.418 81.0284 192.418 81.3722C192.418 81.7188 192.359 82.0192 192.241 82.2734C192.123 82.5263 191.96 82.7223 191.751 82.8615C191.542 82.9993 191.301 83.0682 191.028 83.0682C190.818 83.0682 190.65 83.0334 190.523 82.9638C190.397 82.8928 190.3 82.8125 190.232 82.723C190.163 82.6321 190.111 82.5568 190.074 82.4972H190.014V83H189.528ZM190.023 81.3636C190.023 81.6108 190.059 81.8288 190.131 82.0178C190.204 82.2053 190.31 82.3523 190.449 82.4588C190.588 82.5639 190.759 82.6165 190.96 82.6165C191.17 82.6165 191.346 82.5611 191.487 82.4503C191.629 82.3381 191.735 82.1875 191.806 81.9986C191.879 81.8082 191.915 81.5966 191.915 81.3636C191.915 81.1335 191.879 80.9261 191.808 80.7415C191.739 80.5554 191.633 80.4084 191.491 80.3004C191.35 80.1911 191.173 80.1364 190.96 80.1364C190.756 80.1364 190.584 80.1882 190.445 80.2919C190.305 80.3942 190.2 80.5376 190.129 80.7223C190.058 80.9055 190.023 81.1193 190.023 81.3636ZM195.279 81.6619V79.7273H195.782V83H195.279V82.446H195.245C195.168 82.6122 195.049 82.7536 194.887 82.87C194.725 82.9851 194.521 83.0426 194.274 83.0426C194.069 83.0426 193.887 82.9979 193.728 82.9084C193.569 82.8175 193.444 82.6811 193.353 82.4993C193.262 82.3161 193.217 82.0852 193.217 81.8068V79.7273H193.72V81.7727C193.72 82.0114 193.786 82.2017 193.92 82.3438C194.055 82.4858 194.227 82.5568 194.436 82.5568C194.561 82.5568 194.688 82.5249 194.817 82.4609C194.948 82.397 195.057 82.299 195.145 82.1669C195.235 82.0348 195.279 81.8665 195.279 81.6619ZM198.156 79.7273V80.1534H196.46V79.7273H198.156ZM196.955 78.9432H197.458V82.0625C197.458 82.2045 197.478 82.3111 197.519 82.3821C197.562 82.4517 197.616 82.4986 197.681 82.5227C197.748 82.5455 197.818 82.5568 197.892 82.5568C197.948 82.5568 197.993 82.554 198.029 82.5483C198.064 82.5412 198.092 82.5355 198.114 82.5312L198.216 82.983C198.182 82.9957 198.134 83.0085 198.073 83.0213C198.012 83.0355 197.935 83.0426 197.841 83.0426C197.699 83.0426 197.56 83.0121 197.423 82.951C197.289 82.8899 197.176 82.7969 197.087 82.6719C196.999 82.5469 196.955 82.3892 196.955 82.1989V78.9432ZM200.366 79.7273V80.1534H198.67V79.7273H200.366ZM199.164 78.9432H199.667V82.0625C199.667 82.2045 199.688 82.3111 199.729 82.3821C199.772 82.4517 199.826 82.4986 199.891 82.5227C199.958 82.5455 200.028 82.5568 200.102 82.5568C200.157 82.5568 200.203 82.554 200.238 82.5483C200.274 82.5412 200.302 82.5355 200.323 82.5312L200.426 82.983C200.392 82.9957 200.344 83.0085 200.283 83.0213C200.222 83.0355 200.145 83.0426 200.051 83.0426C199.909 83.0426 199.77 83.0121 199.633 82.951C199.498 82.8899 199.386 82.7969 199.296 82.6719C199.208 82.5469 199.164 82.3892 199.164 82.1989V78.9432ZM202.447 83.0682C202.151 83.0682 201.892 82.9979 201.669 82.8572C201.448 82.7166 201.274 82.5199 201.149 82.267C201.026 82.0142 200.964 81.7187 200.964 81.3807C200.964 81.0398 201.026 80.7422 201.149 80.4879C201.274 80.2337 201.448 80.0362 201.669 79.8956C201.892 79.755 202.151 79.6847 202.447 79.6847C202.742 79.6847 203.001 79.755 203.222 79.8956C203.445 80.0362 203.619 80.2337 203.742 80.4879C203.867 80.7422 203.93 81.0398 203.93 81.3807C203.93 81.7187 203.867 82.0142 203.742 82.267C203.619 82.5199 203.445 82.7166 203.222 82.8572C203.001 82.9979 202.742 83.0682 202.447 83.0682ZM202.447 82.6165C202.671 82.6165 202.856 82.5589 203.001 82.4439C203.146 82.3288 203.253 82.1776 203.323 81.9901C203.392 81.8026 203.427 81.5994 203.427 81.3807C203.427 81.1619 203.392 80.9581 203.323 80.7692C203.253 80.5803 203.146 80.4276 203.001 80.3111C202.856 80.1946 202.671 80.1364 202.447 80.1364C202.222 80.1364 202.038 80.1946 201.893 80.3111C201.748 80.4276 201.641 80.5803 201.571 80.7692C201.502 80.9581 201.467 81.1619 201.467 81.3807C201.467 81.5994 201.502 81.8026 201.571 81.9901C201.641 82.1776 201.748 82.3288 201.893 82.4439C202.038 82.5589 202.222 82.6165 202.447 82.6165ZM205.23 81.0312V83H204.727V79.7273H205.213V80.2386H205.256C205.333 80.0724 205.449 79.9389 205.605 79.8381C205.762 79.7358 205.963 79.6847 206.21 79.6847C206.432 79.6847 206.626 79.7301 206.792 79.821C206.958 79.9105 207.087 80.0469 207.18 80.2301C207.272 80.4119 207.318 80.642 207.318 80.9205V83H206.815V80.9545C206.815 80.6974 206.749 80.4972 206.615 80.3537C206.482 80.2088 206.298 80.1364 206.065 80.1364C205.905 80.1364 205.762 80.1712 205.635 80.2408C205.51 80.3104 205.411 80.4119 205.339 80.5455C205.266 80.679 205.23 80.8409 205.23 81.0312Z" fill="black"/>
<defs>
<filter id="filter0_d_1296_1812" x="51.9504" y="18.6717" width="78.0993" height="90.0993" filterUnits="userSpaceOnUse" color-interpolation-filters="sRGB">
<feFlood flood-opacity="0" result="BackgroundImageFix"/>
<feColorMatrix in="SourceAlpha" type="matrix" values="0 0 0 0 0 0 0 0 0 0 0 0 0 0 0 0 0 0 127 0" result="hardAlpha"/>
<feOffset dy="2.72138"/>
<feGaussianBlur stdDeviation="9.52482"/>
<feColorMatrix type="matrix" values="0 0 0 0 0 0 0 0 0 0 0 0 0 0 0 0 0 0 0.15 0"/>
<feBlend mode="normal" in2="BackgroundImageFix" result="effect1_dropShadow_1296_1812"/>
<feBlend mode="normal" in="SourceGraphic" in2="effect1_dropShadow_1296_1812" result="shape"/>
</filter>
<filter id="filter1_dd_1296_1812" x="109.95" y="18.6717" width="78.0993" height="90.0993" filterUnits="userSpaceOnUse" color-interpolation-filters="sRGB">
<feFlood flood-opacity="0" result="BackgroundImageFix"/>
<feColorMatrix in="SourceAlpha" type="matrix" values="0 0 0 0 0 0 0 0 0 0 0 0 0 0 0 0 0 0 127 0" result="hardAlpha"/>
<feOffset dy="2.72138"/>
<feGaussianBlur stdDeviation="9.52482"/>
<feColorMatrix type="matrix" values="0 0 0 0 0 0 0 0 0 0 0 0 0 0 0 0 0 0 0.15 0"/>
<feBlend mode="normal" in2="BackgroundImageFix" result="effect1_dropShadow_1296_1812"/>
<feColorMatrix in="SourceAlpha" type="matrix" values="0 0 0 0 0 0 0 0 0 0 0 0 0 0 0 0 0 0 127 0" result="hardAlpha"/>
<feOffset dy="2.72138"/>
<feGaussianBlur stdDeviation="9.52482"/>
<feColorMatrix type="matrix" values="0 0 0 0 0 0 0 0 0 0 0 0 0 0 0 0 0 0 0.15 0"/>
<feBlend mode="normal" in2="effect1_dropShadow_1296_1812" result="effect2_dropShadow_1296_1812"/>
<feBlend mode="normal" in="SourceGraphic" in2="effect2_dropShadow_1296_1812" result="shape"/>
</filter>
</defs>
</svg>
