<svg width="240" height="120" viewBox="0 0 240 120" fill="none" xmlns="http://www.w3.org/2000/svg">
<rect width="240" height="120" fill="var(--figma-color-bg-secondary)"/>
<g filter="url(#filter0_d_1296_1954)">
<rect x="90" y="20" width="60" height="78" fill="var(--figma-color-bg)"/>
</g>
<rect x="94.5" y="24.5" width="6" height="6" fill="#0D99FF"/>
<rect x="127.5" y="84.5" width="18" height="9" rx="0.680344" fill="var(--figma-color-bg-brand)"/>
<path d="M142.5 24.5L144.75 26.75M147 29L144.75 26.75M144.75 26.75L147 24.5L142.5 29" stroke="var(--figma-color-icon)" stroke-width="0.5"/>
<rect x="90" y="35" width="60" height="1.5" fill="var(--figma-color-border)"/>
<rect x="90" y="41" width="60" height="12" fill="var(--figma-color-bg-selected-tertiary)"/>
<rect x="95" y="44.5" width="5" height="5" stroke="var(--figma-color-icon-tertiary)" />
<rect x="95" y="56.5" width="5" height="5" stroke="var(--figma-color-icon-tertiary)" />
<rect x="95" y="68.5" width="5" height="5" stroke="var(--figma-color-icon-tertiary)" />
<rect x="103.5" y="45.5" width="24" height="3" rx="1.5" fill="var(--figma-color-text-secondary)"/>
<rect x="103.5" y="57.5" width="30" height="3" rx="1.5" fill="var(--figma-color-text-tertiary)"/>
<rect x="103.5" y="69.5" width="21" height="3" rx="1.5" fill="var(--figma-color-text-tertiary)"/>
<path d="M58.5 75.5H57.5V78.5H58.5V75.5ZM53.05 77.343L52.343 78.05L54.465 80.172L55.172 79.464L53.05 77.344V77.343ZM63.657 78.05L62.95 77.343L60.829 79.464L61.536 80.172L63.657 78.05V78.05ZM50.5 82.5V83.5H53.5V82.5H50.5ZM62.5 82.5V83.5H65.5V82.5H62.5ZM55.172 86.536L54.465 85.828L52.343 87.95L53.05 88.657L55.172 86.536ZM61.535 85.828L60.828 86.536L62.95 88.656L63.657 87.95L61.535 85.828ZM58.5 87.5H57.5V90.5H58.5V87.5Z" fill="var(--figma-color-icon)"/>
<path fill-rule="evenodd" clip-rule="evenodd" d="M60.498 82.998C60.498 84.378 59.378 85.498 57.998 85.498C56.618 85.498 55.498 84.378 55.498 82.998C55.498 81.618 56.618 80.498 57.998 80.498C59.378 80.498 60.498 81.618 60.498 82.998V82.998ZM59.498 82.998C59.498 83.826 58.826 84.498 57.998 84.498C57.169 84.498 56.498 83.826 56.498 82.998C56.498 82.169 57.169 81.498 57.998 81.498C58.826 81.498 59.498 82.169 59.498 82.998V82.998Z" fill="var(--figma-color-icon)"/>
<circle cx="58" cy="35" r="8" fill="var(--figma-color-bg-brand)"/>
<path d="M52.3299 62L53.0643 59.8828H56.1893L56.9198 62H58.201L55.3221 54H53.9276L51.0487 62H52.3299ZM53.4159 58.8672L54.5955 55.4531H54.658L55.8377 58.8672H53.4159Z" fill="var(--figma-color-icon)"/>
<path d="M61.7365 64.3633C63.2638 64.3633 64.4435 63.6641 64.4435 62.1328V56H63.299V56.9727H63.213C63.006 56.6016 62.592 55.9219 61.4748 55.9219C60.0255 55.9219 58.9591 57.0664 58.9591 58.9766C58.9591 60.8906 60.049 61.9102 61.467 61.9102C62.5685 61.9102 62.9943 61.2891 63.2052 60.9062H63.2795V62.0859C63.2795 63.0117 62.6349 63.4219 61.7482 63.4219C60.7755 63.4219 60.3966 62.9336 60.1896 62.6016L59.1857 63.0156C59.5021 63.7383 60.3029 64.3633 61.7365 64.3633ZM61.7248 60.9414C60.6818 60.9414 60.1388 60.1406 60.1388 58.9609C60.1388 57.8086 60.6701 56.9141 61.7248 56.9141C62.7443 56.9141 63.2912 57.7461 63.2912 58.9609C63.2912 60.1992 62.7326 60.9414 61.7248 60.9414Z" fill="var(--figma-color-icon)"/>
<path d="M182.5 76.5H181.5V78.5H182.5V76.5ZM178.05 78.343L177.343 79.05L178.465 80.172L179.172 79.464L178.05 78.344V78.343ZM186.657 79.05L185.95 78.343L184.829 79.464L185.536 80.172L186.657 79.05ZM175.5 82.5V83.5H177.5V82.5H175.5ZM186.5 82.5V83.5H188.5V82.5H186.5ZM179.172 86.536L178.465 85.828L177.343 86.95L178.05 87.657L179.172 86.536ZM185.535 85.828L184.828 86.536L185.95 87.656L186.657 86.95L185.535 85.828ZM182.5 87.5H181.5V89.5H182.5V87.5Z" fill="var(--figma-color-icon)"/>
<path fill-rule="evenodd" clip-rule="evenodd" d="M184.498 82.998C184.498 84.378 183.378 85.498 181.998 85.498C180.618 85.498 179.498 84.378 179.498 82.998C179.498 81.618 180.618 80.498 181.998 80.498C183.378 80.498 184.498 81.618 184.498 82.998V82.998ZM183.498 82.998C183.498 83.826 182.826 84.498 181.998 84.498C181.169 84.498 180.498 83.826 180.498 82.998C180.498 82.169 181.169 81.498 181.998 81.498C182.826 81.498 183.498 82.169 183.498 82.998V82.998Z" fill="var(--figma-color-icon)"/>
<circle cx="182" cy="35" r="8" fill="#7B61FF"/>
<path d="M176.391 61.5952L177.347 61.8475V62.2857H174.652V61.8475L175.608 61.5952L178.091 54.1726L178.861 54L181.477 61.5952L182.433 61.8475V62.2857H179.551V61.8475L180.348 61.6218L179.87 60.2674H176.829L176.391 61.5952ZM178.317 55.7527L177.015 59.6566H179.671L178.317 55.7527Z" fill="var(--figma-color-icon)"/>
<path d="M185.337 64.636C184.417 64.636 183.802 64.5209 183.492 64.2907C183.182 64.0606 183.027 63.7463 183.027 63.348C183.027 63.1267 183.085 62.8877 183.2 62.631C183.324 62.3831 183.523 62.1441 183.797 61.9139C183.523 61.7723 183.386 61.5288 183.386 61.1836C183.386 60.9977 183.456 60.7941 183.598 60.5728C183.74 60.3515 183.943 60.0992 184.209 59.8159C183.66 59.4353 183.386 58.7979 183.386 57.9038C183.386 57.5055 183.474 57.1381 183.651 56.8017C183.837 56.4565 184.111 56.1777 184.474 55.9652C184.837 55.7527 185.28 55.6465 185.802 55.6465C186.103 55.6465 186.364 55.6775 186.586 55.7395C186.816 55.7926 187.037 55.8767 187.25 55.9918L189.135 55.5005V56.4299H187.635C187.821 56.5981 187.962 56.815 188.06 57.0806C188.157 57.3462 188.206 57.6206 188.206 57.9038C188.206 58.5324 188.002 59.0591 187.595 59.484C187.196 59.9 186.55 60.1081 185.656 60.1081C185.435 60.1081 185.222 60.0948 185.019 60.0682C184.824 60.0328 184.727 60.0107 184.727 60.0018C184.594 60.1789 184.501 60.3249 184.448 60.44C184.395 60.5462 184.368 60.648 184.368 60.7454C184.368 60.8516 184.404 60.949 184.474 61.0375C184.554 61.1261 184.656 61.1703 184.78 61.1703H186.971C187.617 61.1703 188.104 61.2633 188.431 61.4492C188.759 61.6262 188.923 61.9715 188.923 62.4849C188.923 62.839 188.794 63.1798 188.538 63.5073C188.29 63.8349 187.896 64.1049 187.356 64.3173C186.816 64.5298 186.143 64.636 185.337 64.636ZM185.829 59.484C186.298 59.484 186.625 59.3512 186.811 59.0856C186.997 58.8112 187.09 58.4173 187.09 57.9038C187.09 57.3993 186.984 57.0009 186.772 56.7088C186.568 56.4167 186.24 56.2706 185.789 56.2706C185.32 56.2706 184.988 56.4122 184.793 56.6955C184.607 56.9788 184.514 57.3816 184.514 57.9038C184.514 58.4173 184.612 58.8112 184.806 59.0856C185.01 59.3512 185.351 59.484 185.829 59.484ZM185.444 63.9721C186.32 63.9721 186.957 63.857 187.356 63.6268C187.763 63.3967 187.967 63.0824 187.967 62.6841C187.967 62.4273 187.891 62.2547 187.741 62.1662C187.599 62.0688 187.365 62.0201 187.037 62.0201H184.435C184.142 62.3831 183.996 62.7328 183.996 63.0691C183.996 63.3967 184.098 63.6268 184.302 63.7596C184.505 63.9012 184.886 63.9721 185.444 63.9721Z" fill="var(--figma-color-icon)"/>
<defs>
<filter id="filter0_d_1296_1954" x="70.9504" y="3.67173" width="98.0993" height="116.099" filterUnits="userSpaceOnUse" color-interpolation-filters="sRGB">
<feFlood flood-opacity="0" result="BackgroundImageFix"/>
<feColorMatrix in="SourceAlpha" type="matrix" values="0 0 0 0 0 0 0 0 0 0 0 0 0 0 0 0 0 0 127 0" result="hardAlpha"/>
<feOffset dy="2.72138"/>
<feGaussianBlur stdDeviation="9.52482"/>
<feColorMatrix type="matrix" values="0 0 0 0 0 0 0 0 0 0 0 0 0 0 0 0 0 0 0.15 0"/>
<feBlend mode="normal" in2="BackgroundImageFix" result="effect1_dropShadow_1296_1954"/>
<feBlend mode="normal" in="SourceGraphic" in2="effect1_dropShadow_1296_1954" result="shape"/>
</filter>
</defs>
</svg>
