<svg width="240" height="120" viewBox="0 0 240 120" fill="none" xmlns="http://www.w3.org/2000/svg">
<rect width="240" height="120" fill="var(--figma-color-bg-secondary)"/>
<rect width="87" height="58" transform="translate(22 31)" fill="#E9E9E9"/>
<rect x="22" y="36" width="17" height="53" fill="white"/>
<rect x="92" y="36" width="17" height="53" fill="white"/>
<rect x="22" y="31" width="87" height="5" fill="black" fill-opacity="0.8"/>
<rect x="28" y="31" width="5" height="5" fill="#189FFB"/>
<rect x="101" y="32" width="6" height="3" rx="0.680344" fill="#189FFB"/>
<g filter="url(#filter0_d_1296_1762)">
<rect x="26" y="65" width="20" height="20" rx="4" fill="#2E2E2E"/>
</g>
<path d="M34.0556 82.5C35.2828 82.5 36.2778 81.5051 36.2778 80.2778V78.0555H34.0556C32.8283 78.0555 31.8333 79.0505 31.8333 80.2778C31.8333 81.5051 32.8283 82.5 34.0556 82.5Z" fill="#0ACF83"/>
<path d="M31.8333 75.8333C31.8333 74.606 32.8283 73.6111 34.0556 73.6111H36.2778V78.0556H34.0556C32.8283 78.0556 31.8333 77.0606 31.8333 75.8333V75.8333Z" fill="#A259FF"/>
<path d="M31.8333 71.3889C31.8333 70.1616 32.8283 69.1667 34.0556 69.1667H36.2778V73.6111H34.0556C32.8283 73.6111 31.8333 72.6162 31.8333 71.3889V71.3889Z" fill="#F24E1E"/>
<path d="M36.2778 69.1667H38.5C39.7273 69.1667 40.7222 70.1616 40.7222 71.3889V71.3889C40.7222 72.6162 39.7273 73.6111 38.5 73.6111H36.2778V69.1667Z" fill="#FF7262"/>
<circle cx="38.5" cy="75.8333" r="2.22222" fill="#1ABCFE"/>
<path d="M71 49L78.7942 62.5H63.2058L71 49Z" fill="#8638E5"/>
<rect x="60.5" y="46.5" width="21" height="21" stroke="#189FFB"/>
<rect x="59.5" y="45.5" width="2" height="2" fill="white" stroke="#189FFB"/>
<rect x="59.5" y="66.5" width="2" height="2" fill="white" stroke="#189FFB"/>
<rect x="80.5" y="45.5" width="2" height="2" fill="white" stroke="#189FFB"/>
<rect x="80.5" y="66.5" width="2" height="2" fill="white" stroke="#189FFB"/>
<rect width="86" height="58" transform="translate(132 31)" fill="white"/>
<rect x="156.5" y="53.5" width="53" height="28" rx="0.5" stroke="#E9E9E9"/>
<rect x="156" y="53" width="54" height="6" rx="1" fill="#E9E9E9"/>
<rect x="156.5" y="46.5" width="34" height="3" rx="0.5" stroke="#E9E9E9"/>
<rect x="194" y="46" width="16" height="4" rx="1" fill="#3967E5"/>
<rect x="135" y="48" width="7" height="1" rx="0.5" fill="#E9E9E9"/>
<rect x="135" y="54" width="5" height="1" rx="0.5" fill="#E9E9E9"/>
<rect x="135" y="51" width="9" height="1" rx="0.5" fill="#E9E9E9"/>
<rect x="135" y="57" width="10" height="1" rx="0.5" fill="#E9E9E9"/>
<g filter="url(#filter1_d_1296_1762)">
<rect x="194" y="65" width="20" height="20" rx="4" fill="#3967E5"/>
</g>
<path fill-rule="evenodd" clip-rule="evenodd" d="M209.833 71.4818C209.833 71.0681 209.574 70.7361 209.253 70.4908C208.928 70.2419 208.482 70.0349 207.968 69.8682C206.934 69.5336 205.531 69.3333 204 69.3333C202.469 69.3333 201.066 69.5336 200.032 69.8682C199.518 70.0349 199.072 70.2419 198.747 70.4908C198.426 70.7361 198.167 71.0681 198.167 71.4818V79.6849C198.167 80.0978 198.423 80.4298 198.743 80.6761C199.067 80.9254 199.512 81.1325 200.026 81.2991C201.058 81.6336 202.46 81.8333 204 81.8333C205.539 81.8333 206.942 81.6336 207.974 81.2991C208.488 81.1325 208.933 80.9254 209.257 80.6761C209.577 80.4298 209.833 80.0978 209.833 79.6849V71.4818ZM199.245 71.1044C199.016 71.2796 198.971 71.4101 198.971 71.4818C198.971 71.5535 199.016 71.684 199.245 71.8592C199.469 72.0309 199.819 72.2027 200.287 72.3542C201.219 72.6557 202.531 72.849 204 72.849C205.469 72.849 206.781 72.6557 207.713 72.3542C208.181 72.2027 208.531 72.0309 208.755 71.8592C208.984 71.684 209.029 71.5535 209.029 71.4818C209.029 71.4101 208.984 71.2796 208.755 71.1044C208.531 70.9326 208.181 70.7609 207.713 70.6094C206.781 70.3078 205.469 70.1146 204 70.1146C202.531 70.1146 201.219 70.3078 200.287 70.6094C199.819 70.7609 199.469 70.9326 199.245 71.1044ZM209.029 72.6266C208.734 72.8083 208.372 72.9643 207.968 73.0953C206.934 73.4299 205.531 73.6302 204 73.6302C202.469 73.6302 201.066 73.4299 200.032 73.0953C199.628 72.9643 199.266 72.8083 198.971 72.6266V75.5833C198.971 75.6568 199.016 75.7876 199.243 75.9622C199.466 76.1337 199.814 76.3052 200.28 76.4565C201.21 76.7577 202.522 76.9505 204 76.9505C205.478 76.9505 206.79 76.7577 207.72 76.4565C208.186 76.3052 208.534 76.1337 208.757 75.9622C208.984 75.7876 209.029 75.6568 209.029 75.5833V72.6266ZM209.029 76.7311C208.736 76.9119 208.377 77.0671 207.974 77.1975C206.942 77.5321 205.539 77.7318 204 77.7318C202.46 77.7318 201.058 77.5321 200.026 77.1975C199.623 77.0671 199.264 76.9119 198.971 76.7311V79.6849C198.971 79.7584 199.016 79.8892 199.243 80.0637C199.466 80.2352 199.814 80.4068 200.28 80.558C201.21 80.8592 202.522 81.0521 204 81.0521C205.478 81.0521 206.79 80.8592 207.72 80.558C208.186 80.4068 208.534 80.2352 208.757 80.0637C208.984 79.8892 209.029 79.7584 209.029 79.6849V76.7311Z" fill="#F7F7F7"/>
<path d="M166.142 37.8962V40.3233C166.142 40.5 166.117 40.6686 166.067 40.8291C166.017 40.9897 165.938 41.1324 165.829 41.2573C165.722 41.3804 165.583 41.4785 165.412 41.5516C165.242 41.623 165.037 41.6587 164.796 41.6587C164.593 41.6587 164.404 41.6292 164.231 41.5704C164.058 41.5115 163.896 41.4276 163.744 41.3188L163.999 40.9228C164.145 41.0191 164.28 41.0842 164.403 41.1181C164.528 41.152 164.651 41.169 164.772 41.169C165.004 41.169 165.187 41.0949 165.321 40.9469C165.456 40.7988 165.524 40.5865 165.524 40.31V38.3725H164.413V37.8962H166.142Z" fill="#3867E5"/>
<path d="M169.595 40.5455C169.595 40.7631 169.538 40.9567 169.426 41.1261C169.315 41.2938 169.155 41.425 168.944 41.5195C168.736 41.6141 168.483 41.6613 168.187 41.6613C167.887 41.6613 167.624 41.6167 167.398 41.5275C167.173 41.4366 166.983 41.3161 166.828 41.1663L167.168 40.7863C167.3 40.9058 167.449 41.0004 167.614 41.07C167.78 41.1377 167.97 41.1716 168.184 41.1716C168.324 41.1716 168.451 41.1502 168.567 41.1074C168.683 41.0628 168.776 40.9968 168.845 40.9094C168.915 40.8202 168.95 40.7087 168.95 40.5749C168.95 40.4661 168.927 40.3742 168.883 40.2993C168.838 40.2243 168.761 40.1565 168.65 40.0959C168.541 40.0352 168.389 39.9764 168.192 39.9193C167.932 39.8408 167.713 39.7534 167.537 39.657C167.36 39.5607 167.226 39.4456 167.135 39.3118C167.046 39.1762 167.002 39.0121 167.002 38.8194C167.002 38.6196 167.056 38.4448 167.165 38.2949C167.275 38.1451 167.426 38.0291 167.617 37.9471C167.81 37.8632 168.027 37.8213 168.27 37.8213C168.538 37.8213 168.771 37.8596 168.971 37.9364C169.171 38.0131 169.349 38.1228 169.506 38.2655L169.18 38.6348C169.05 38.5206 168.91 38.4377 168.76 38.3859C168.612 38.3342 168.461 38.3083 168.308 38.3083C168.183 38.3083 168.069 38.3262 167.968 38.3618C167.866 38.3975 167.786 38.4501 167.727 38.5197C167.668 38.5893 167.639 38.6776 167.639 38.7846C167.639 38.8792 167.664 38.9604 167.716 39.0282C167.77 39.096 167.859 39.1593 167.984 39.2182C168.11 39.2752 168.283 39.3368 168.503 39.4028C168.71 39.4635 168.895 39.5384 169.059 39.6276C169.225 39.7168 169.356 39.8336 169.45 39.9781C169.547 40.1226 169.595 40.3118 169.595 40.5455Z" fill="#3867E5"/>
<path d="M172.905 39.7427C172.905 40.1226 172.853 40.4571 172.748 40.7462C172.642 41.0334 172.485 41.2582 172.277 41.4205C172.068 41.5811 171.809 41.6613 171.501 41.6613C171.194 41.6613 170.935 41.5829 170.725 41.4259C170.516 41.2671 170.359 41.045 170.254 40.7595C170.148 40.4723 170.096 40.1351 170.096 39.748C170.096 39.3662 170.148 39.0317 170.254 38.7445C170.359 38.4555 170.516 38.2298 170.725 38.0675C170.935 37.9034 171.194 37.8213 171.501 37.8213C171.809 37.8213 172.068 37.9007 172.277 38.0595C172.485 38.2182 172.642 38.4421 172.748 38.7311C172.853 39.0184 172.905 39.3555 172.905 39.7427ZM172.263 39.7427C172.263 39.2645 172.203 38.906 172.084 38.6669C171.966 38.4261 171.772 38.3056 171.501 38.3056C171.229 38.3056 171.034 38.427 170.915 38.6696C170.797 38.9104 170.738 39.2699 170.738 39.748C170.738 40.2243 170.799 40.582 170.92 40.8211C171.041 41.0584 171.235 41.177 171.501 41.177C171.775 41.177 171.971 41.0575 172.087 40.8184C172.204 40.5776 172.263 40.219 172.263 39.7427Z" fill="#3867E5"/>
<path d="M175.151 41.5891L173.976 38.4475C173.982 38.5028 173.989 38.5813 173.998 38.683C174.009 38.7846 174.018 38.9024 174.027 39.0362C174.038 39.17 174.047 39.3118 174.054 39.4617C174.061 39.6115 174.065 39.7614 174.065 39.9112V41.5891H173.514V37.8962H174.319L175.496 41.0405C175.488 40.9656 175.476 40.8559 175.462 40.7114C175.449 40.5651 175.437 40.3956 175.424 40.2029C175.413 40.0085 175.408 39.8006 175.408 39.5794V37.8962H175.959V41.5891H175.151Z" fill="#3867E5"/>
<path d="M178.621 40.5214C178.621 40.3555 178.589 40.227 178.524 40.1361C178.46 40.0451 178.374 39.9817 178.265 39.9461C178.156 39.9086 178.034 39.8899 177.898 39.8899H177.371V41.1074H177.871C177.961 41.1074 178.049 41.1003 178.136 41.086C178.226 41.07 178.307 41.0414 178.38 41.0004C178.453 40.9576 178.511 40.8978 178.554 40.8211C178.598 40.7444 178.621 40.6445 178.621 40.5214ZM178.479 38.881C178.479 38.6955 178.421 38.5626 178.305 38.4823C178.189 38.402 178.026 38.3619 177.815 38.3619H177.371V39.4296H177.853C178.06 39.4296 178.216 39.3868 178.321 39.3011C178.426 39.2137 178.479 39.0737 178.479 38.881ZM179.268 40.5241C179.268 40.7292 179.228 40.9014 179.148 41.0405C179.068 41.1779 178.959 41.2867 178.821 41.367C178.686 41.4473 178.532 41.5044 178.361 41.5383C178.19 41.5722 178.013 41.5891 177.831 41.5891H176.75V37.8962H177.759C177.932 37.8962 178.099 37.9114 178.259 37.9417C178.42 37.9703 178.564 38.0202 178.69 38.0916C178.819 38.1629 178.92 38.2593 178.995 38.3806C179.07 38.5001 179.108 38.65 179.108 38.8302C179.108 38.9854 179.076 39.1174 179.011 39.2262C178.947 39.335 178.862 39.4233 178.757 39.4911C178.654 39.5571 178.543 39.6044 178.425 39.633C178.559 39.6544 178.69 39.6963 178.819 39.7587C178.949 39.8194 179.056 39.9113 179.14 40.0344C179.225 40.1575 179.268 40.3207 179.268 40.5241Z" fill="#121212"/>
<path d="M182.269 37.8962V38.3699H181.471V41.1128H182.269V41.5891H180.048V41.1128H180.845V38.3699H180.048V37.8962H182.269Z" fill="#121212"/>
<path d="M184.809 41.5891L183.634 38.4475C183.639 38.5028 183.647 38.5813 183.655 38.683C183.666 38.7847 183.676 38.9024 183.685 39.0362C183.696 39.17 183.704 39.3118 183.712 39.4617C183.719 39.6116 183.722 39.7614 183.722 39.9113V41.5891H183.171V37.8962H183.977L185.154 41.0405C185.145 40.9656 185.133 40.8559 185.119 40.7114C185.107 40.5651 185.094 40.3956 185.082 40.203C185.071 40.0085 185.066 39.8007 185.066 39.5794V37.8962H185.617V41.5891H184.809Z" fill="#121212"/>
<path d="M186.739 41.3047C186.739 41.2434 186.753 41.1884 186.782 41.1395C186.811 41.0896 186.851 41.0499 186.901 41.0203C186.951 40.9908 187.006 40.9761 187.068 40.9761C187.13 40.9761 187.186 40.9908 187.236 41.0203C187.286 41.0499 187.325 41.0896 187.354 41.1395C187.383 41.1884 187.398 41.2434 187.398 41.3047C187.398 41.3649 187.383 41.4205 187.354 41.4716C187.325 41.5216 187.286 41.5613 187.236 41.5908C187.186 41.6203 187.13 41.6351 187.068 41.6351C187.006 41.6351 186.951 41.6203 186.901 41.5908C186.851 41.5613 186.811 41.5216 186.782 41.4716C186.753 41.4205 186.739 41.3649 186.739 41.3047Z" fill="#121212"/>
<path d="M189.392 39.7908V41.3098H189.881V41.5891H188.473V41.3098H189.011V40.0701H188.49V39.7908H189.392ZM189.127 38.9104C189.202 38.9104 189.262 38.9331 189.307 38.9785C189.354 39.024 189.377 39.0807 189.377 39.1488C189.377 39.217 189.354 39.2743 189.307 39.3208C189.262 39.3674 189.202 39.3907 189.127 39.3907C189.054 39.3907 188.995 39.3674 188.948 39.3208C188.901 39.2743 188.878 39.217 188.878 39.1488C188.878 39.0807 188.901 39.024 188.948 38.9785C188.995 38.9331 189.054 38.9104 189.127 38.9104Z" fill="#121212"/>
<path d="M191.189 39.7432C191.365 39.7432 191.514 39.7823 191.634 39.8607C191.754 39.939 191.845 40.0485 191.906 40.1893C191.969 40.3301 192 40.4958 192 40.6866C192 40.8762 191.968 41.0425 191.905 41.1855C191.842 41.3274 191.75 41.4381 191.629 41.5176C191.508 41.5959 191.361 41.6351 191.188 41.6351C191.014 41.6351 190.866 41.5971 190.745 41.521C190.625 41.4438 190.533 41.3342 190.469 41.1923C190.407 41.0504 190.375 40.883 190.375 40.69C190.375 40.5027 190.407 40.338 190.469 40.1961C190.533 40.0542 190.625 39.9435 190.747 39.8641C190.868 39.7835 191.016 39.7432 191.189 39.7432ZM191.189 40.0395C191.052 40.0395 190.949 40.0922 190.879 40.1978C190.81 40.3023 190.776 40.4663 190.776 40.69C190.776 40.9125 190.81 41.0765 190.878 41.1821C190.947 41.2877 191.05 41.3405 191.188 41.3405C191.325 41.3405 191.428 41.2877 191.496 41.1821C191.565 41.0765 191.6 40.9113 191.6 40.6866C191.6 40.4652 191.566 40.3023 191.498 40.1978C191.43 40.0922 191.327 40.0395 191.189 40.0395Z" fill="#121212"/>
<path d="M157.841 36.8662V37.3078C157.72 37.3078 157.611 37.3193 157.515 37.3425C157.42 37.3657 157.347 37.4059 157.295 37.463C157.245 37.52 157.226 37.5994 157.236 37.7011L157.335 38.6832C157.353 38.8509 157.339 38.9892 157.293 39.098C157.248 39.205 157.176 39.288 157.076 39.3469C156.976 39.4057 156.854 39.4477 156.709 39.4726C156.859 39.4976 156.984 39.5386 157.084 39.5957C157.184 39.651 157.255 39.7322 157.298 39.8392C157.341 39.9463 157.353 40.0872 157.335 40.2621L157.236 41.2441C157.226 41.3458 157.245 41.4252 157.295 41.4823C157.347 41.5412 157.42 41.5813 157.515 41.6027C157.611 41.6259 157.72 41.6375 157.841 41.6375V42.0791C157.656 42.0791 157.487 42.0639 157.335 42.0336C157.185 42.005 157.058 41.9569 156.953 41.8891C156.849 41.8213 156.773 41.7294 156.725 41.6134C156.679 41.4993 156.665 41.3574 156.682 41.188L156.781 40.2647C156.794 40.1381 156.777 40.0346 156.731 39.9543C156.686 39.8723 156.605 39.8116 156.487 39.7723C156.369 39.7331 156.207 39.7135 156 39.7135V39.2318C156.205 39.2318 156.367 39.2131 156.484 39.1756C156.604 39.1364 156.686 39.0766 156.731 38.9963C156.777 38.9142 156.794 38.8099 156.781 38.6832L156.682 37.76C156.665 37.5887 156.679 37.4451 156.725 37.3292C156.773 37.2132 156.849 37.1222 156.953 37.0562C157.058 36.9884 157.185 36.9402 157.335 36.9117C157.487 36.8814 157.656 36.8662 157.841 36.8662Z" fill="#121212"/>
<path d="M159.396 36.8662C159.582 36.8662 159.75 36.8814 159.9 36.9117C160.051 36.9402 160.179 36.9884 160.282 37.0562C160.387 37.124 160.464 37.2159 160.512 37.3318C160.56 37.446 160.575 37.5878 160.555 37.7573L160.456 38.6832C160.444 38.8099 160.462 38.9142 160.512 38.9963C160.564 39.0766 160.65 39.1364 160.769 39.1756C160.889 39.2131 161.045 39.2318 161.238 39.2318V39.7135C161.045 39.7135 160.889 39.7331 160.769 39.7723C160.65 39.8116 160.564 39.8723 160.512 39.9543C160.462 40.0346 160.444 40.1381 160.456 40.2647L160.555 41.1853C160.573 41.3565 160.558 41.5002 160.51 41.6161C160.463 41.7321 160.387 41.8231 160.282 41.8891C160.179 41.9569 160.051 42.005 159.9 42.0336C159.75 42.0639 159.582 42.0791 159.396 42.0791V41.6375C159.518 41.6375 159.626 41.6259 159.72 41.6027C159.817 41.5813 159.89 41.5412 159.94 41.4823C159.991 41.4252 160.012 41.3458 160.001 41.2441L159.902 40.2621C159.884 40.0872 159.898 39.9463 159.942 39.8392C159.989 39.7322 160.065 39.651 160.17 39.5957C160.275 39.5386 160.407 39.4985 160.566 39.4753C160.407 39.4503 160.275 39.4084 160.17 39.3495C160.065 39.2889 159.989 39.205 159.942 39.098C159.898 38.991 159.884 38.8527 159.902 38.6832L160.001 37.7011C160.012 37.5994 159.991 37.52 159.94 37.463C159.89 37.4059 159.817 37.3657 159.723 37.3425C159.628 37.3193 159.52 37.3078 159.396 37.3078V36.8662Z" fill="#121212"/>
<rect x="148" y="31" width="1" height="58" fill="#E9E9E9"/>
<rect x="174" y="58" width="1" height="24" fill="#E9E9E9"/>
<path d="M136.105 35.95V36V36.2541V36.3041H136.055C135.988 36.3041 135.93 36.3105 135.879 36.3227L135.868 36.2741L135.88 36.3227C135.833 36.3342 135.801 36.353 135.779 36.3766C135.763 36.3957 135.753 36.4258 135.758 36.4753L135.758 36.4755L135.758 36.4755L135.815 37.0404C135.815 37.0405 135.815 37.0405 135.815 37.0406C135.825 37.1421 135.817 37.2309 135.786 37.3039L135.74 37.2844M136.105 35.95L135.868 38.7259C135.923 38.7392 135.985 38.7459 136.055 38.7459V38.7959V38.95V39H136.005V38.9993C135.918 38.997 135.838 38.9885 135.765 38.9738M136.105 35.95H136.055C135.946 35.95 135.846 35.9589 135.755 35.9771M136.105 35.95L136.054 36M135.74 37.2844L135.787 37.3035C135.757 37.3751 135.708 37.4312 135.642 37.4706C135.624 37.4809 135.606 37.4902 135.587 37.4987C135.608 37.5073 135.627 37.5168 135.645 37.5273C135.713 37.5648 135.761 37.6204 135.79 37.6925C135.819 37.7645 135.825 37.8546 135.815 37.9594M135.74 37.2844C135.767 37.2218 135.775 37.1422 135.765 37.0457L135.74 37.2844ZM135.815 37.9594L135.765 37.9543L135.815 37.9593L135.815 37.9594ZM135.815 37.9594L135.758 38.5245L135.758 38.5247C135.753 38.5745 135.763 38.6046 135.78 38.6237L135.742 38.6566L135.78 38.6237C135.801 38.6479 135.832 38.6666 135.879 38.6771L135.879 38.6773L135.879 38.6773C135.93 38.6895 135.988 38.6959 136.055 38.6959H136.105V38.7459V39V39.05H136.055C135.946 39.05 135.846 39.0411 135.755 39.0229M135.755 39.0229C135.755 39.0229 135.755 39.0229 135.755 39.0229L135.765 38.9738M135.755 39.0229C135.665 39.0055 135.585 38.9758 135.519 38.9326L135.518 38.9324C135.45 38.8878 135.401 38.827 135.369 38.7511L135.369 38.7508C135.338 38.6751 135.33 38.5847 135.341 38.482L135.341 38.4819L135.398 37.951C135.398 37.9509 135.398 37.9508 135.398 37.9508C135.404 37.8845 135.395 37.8365 135.375 37.8021L135.374 37.801L135.374 37.801C135.357 37.7681 135.323 37.7398 135.263 37.7199C135.203 37.6998 135.116 37.6886 135 37.6886H134.95V37.6386V37.3614V37.3114H135C135.115 37.3114 135.202 37.3007 135.262 37.2815C135.323 37.2614 135.357 37.2333 135.375 37.2017L135.375 37.2014L135.375 37.2014C135.395 37.1658 135.404 37.1169 135.398 37.0508C135.398 37.0507 135.398 37.0506 135.398 37.0506M135.755 39.0229C135.755 39.0229 135.755 39.0229 135.755 39.0228L135.765 38.9738M135.765 38.9738C135.679 38.9574 135.606 38.9297 135.546 38.8907C135.486 38.8516 135.443 38.7988 135.415 38.732C135.389 38.6663 135.381 38.5847 135.391 38.4872L135.448 37.9559C135.455 37.883 135.445 37.8234 135.418 37.7772C135.393 37.73 135.346 37.6951 135.279 37.6725C135.212 37.6499 135.119 37.6386 135 37.6386V37.5886V37.4114V37.3614C135.118 37.3614 135.21 37.3506 135.277 37.3291C135.346 37.3065 135.393 37.2721 135.418 37.2259C135.445 37.1786 135.455 37.1186 135.448 37.0457L135.391 36.5144C135.381 36.4158 135.389 36.3332 135.415 36.2664C135.443 36.1997 135.486 36.1473 135.546 36.1093C135.606 36.0703 135.679 36.0426 135.765 36.0262M136.054 36H136.005V36.0007C135.918 36.003 135.838 36.0115 135.765 36.0262M136.054 36C136.055 36 136.055 36 136.055 36V36.05V36.2041V36.2541C135.985 36.2541 135.923 36.2608 135.868 36.2741C135.813 36.2875 135.772 36.3106 135.742 36.3434L136.054 36ZM135.765 36.0262L135.755 35.9771C135.755 35.9771 135.755 35.9771 135.755 35.9771M135.765 36.0262L135.398 37.0506M135.755 35.9771C135.665 35.9945 135.585 36.0242 135.519 36.0674L135.546 36.1093L135.519 36.0672C135.451 36.1109 135.401 36.1714 135.369 36.2473L135.369 36.2473L135.369 36.2479C135.338 36.3245 135.33 36.4158 135.341 36.5195L135.341 36.5197L135.398 37.0506M135.755 35.9771L135.398 37.0506M136.895 35.95H136.945C137.054 35.95 137.154 35.9589 137.243 35.9771C137.335 35.9945 137.414 36.0242 137.48 36.0675C137.549 36.112 137.599 36.1728 137.631 36.2487C137.663 36.3247 137.671 36.4155 137.659 36.5183C137.659 36.5184 137.659 36.5185 137.659 36.5186L137.602 37.0506C137.602 37.0506 137.602 37.0507 137.602 37.0508C137.596 37.116 137.606 37.1641 137.627 37.1994C137.649 37.233 137.687 37.2615 137.747 37.2815C137.809 37.3008 137.892 37.3114 138 37.3114H138.05V37.3614V37.6386V37.6886H138C137.892 37.6886 137.809 37.6997 137.747 37.72C137.687 37.74 137.649 37.7689 137.627 37.8037C137.606 37.8377 137.596 37.8852 137.602 37.9508C137.602 37.9508 137.602 37.9509 137.602 37.951L137.659 38.4803L137.659 38.4805C137.67 38.5842 137.661 38.6757 137.629 38.7524C137.599 38.8286 137.549 38.8891 137.48 38.9327C137.414 38.9759 137.335 39.0055 137.243 39.0229C137.154 39.0411 137.054 39.05 136.945 39.05H136.895V39V38.7459V38.6959H136.945C137.012 38.6959 137.07 38.6895 137.119 38.6773L137.12 38.6771L137.12 38.6771C137.167 38.6665 137.199 38.6478 137.218 38.6243L137.219 38.6231L137.219 38.6231C137.237 38.6039 137.247 38.574 137.242 38.5247L137.242 38.5245L137.185 37.9594L137.185 37.9593L137.235 37.9543C137.225 37.8537 137.233 37.7726 137.258 37.711L136.895 35.95ZM136.895 35.95V36V36.2541V36.3041H136.945C137.013 36.3041 137.071 36.3105 137.12 36.3227C137.167 36.3342 137.199 36.3531 137.219 36.3763L137.219 36.3763L137.219 36.3769C137.237 36.3961 137.247 36.426 137.242 36.4753L137.242 36.4755L137.185 37.0405C137.185 37.0405 137.185 37.0405 137.185 37.0406C137.175 37.1427 137.182 37.2315 137.212 37.3035L137.212 37.3035L137.212 37.3042C137.243 37.3761 137.294 37.4324 137.363 37.4724L137.363 37.4724L137.364 37.4727C137.382 37.4828 137.401 37.492 137.421 37.5004M136.895 35.95L137.421 37.5004M137.421 37.5004C137.401 37.5084 137.382 37.5172 137.365 37.5268C137.365 37.5267 137.365 37.5267 137.365 37.5266L137.421 37.5004ZM135.406 37.5C135.445 37.5066 135.482 37.5151 135.515 37.5256L135.515 37.4732C135.481 37.4843 135.445 37.4932 135.406 37.5ZM137.257 36.3434C137.228 36.3106 137.187 36.2875 137.132 36.2741C137.078 36.2608 137.016 36.2541 136.945 36.2541V36.2041V36.05V36H136.995V36.0007C137.082 36.003 137.161 36.0115 137.234 36.0262C137.32 36.0426 137.394 36.0703 137.453 36.1093L137.257 36.3434Z" fill="#3867E5" stroke="#3867E5" stroke-width="0.1"/>
<circle cx="120" cy="61" r="16" fill="#189FFB"/>
<path d="M128.308 65.7693L128.827 65.2279C128.974 65.3693 129.058 65.5649 129.058 65.7693C129.058 65.9737 128.974 66.1692 128.827 66.3107L128.308 65.7693ZM127.789 66.3107L123.696 62.3876L124.734 61.3048L128.827 65.2279L127.789 66.3107ZM128.827 66.3107L124.734 70.2338L123.696 69.1509L127.789 65.2279L128.827 66.3107ZM128.308 66.5193H112V65.0193H128.308V66.5193Z" fill="white"/>
<path d="M112 56.9231L111.481 56.3817C111.333 56.5231 111.25 56.7187 111.25 56.9231C111.25 57.1275 111.333 57.323 111.481 57.4645L112 56.9231ZM112.519 57.4645L116.611 53.5414L115.573 52.4586L111.481 56.3817L112.519 57.4645ZM111.481 57.4645L115.573 61.3876L116.611 60.3047L112.519 56.3817L111.481 57.4645ZM112 57.6731H128.308V56.1731H112V57.6731Z" fill="white"/>
<defs>
<filter id="filter0_d_1296_1762" x="6.95035" y="48.6717" width="58.0993" height="58.0993" filterUnits="userSpaceOnUse" color-interpolation-filters="sRGB">
<feFlood flood-opacity="0" result="BackgroundImageFix"/>
<feColorMatrix in="SourceAlpha" type="matrix" values="0 0 0 0 0 0 0 0 0 0 0 0 0 0 0 0 0 0 127 0" result="hardAlpha"/>
<feOffset dy="2.72138"/>
<feGaussianBlur stdDeviation="9.52482"/>
<feColorMatrix type="matrix" values="0 0 0 0 0 0 0 0 0 0 0 0 0 0 0 0 0 0 0.15 0"/>
<feBlend mode="normal" in2="BackgroundImageFix" result="effect1_dropShadow_1296_1762"/>
<feBlend mode="normal" in="SourceGraphic" in2="effect1_dropShadow_1296_1762" result="shape"/>
</filter>
<filter id="filter1_d_1296_1762" x="174.95" y="48.6717" width="58.0993" height="58.0993" filterUnits="userSpaceOnUse" color-interpolation-filters="sRGB">
<feFlood flood-opacity="0" result="BackgroundImageFix"/>
<feColorMatrix in="SourceAlpha" type="matrix" values="0 0 0 0 0 0 0 0 0 0 0 0 0 0 0 0 0 0 127 0" result="hardAlpha"/>
<feOffset dy="2.72138"/>
<feGaussianBlur stdDeviation="9.52482"/>
<feColorMatrix type="matrix" values="0 0 0 0 0 0 0 0 0 0 0 0 0 0 0 0 0 0 0.15 0"/>
<feBlend mode="normal" in2="BackgroundImageFix" result="effect1_dropShadow_1296_1762"/>
<feBlend mode="normal" in="SourceGraphic" in2="effect1_dropShadow_1296_1762" result="shape"/>
</filter>
</defs>
</svg>
