<svg fill="none" height="32" viewBox="0 0 32 32" width="32" xmlns="http://www.w3.org/2000/svg" xmlns:xlink="http://www.w3.org/1999/xlink"><mask id="a" height="9" maskUnits="userSpaceOnUse" width="8" x="15" y="8"><path d="m15 8h8v9h-8z" fill="#c4c4c4"/><path d="m15.5 8.5h7v8h-7z" fill="none" stroke="#000" stroke-opacity=".8"/></mask><mask id="b" fill="#fff"><path clip-rule="evenodd" d="m13 10h-3v12h3zm-3-1c-.55228 0-1 .44772-1 1v12c0 .5523.44772 1 1 1h3c.5523 0 1-.4477 1-1v-12c0-.55228-.4477-1-1-1z" fill="#fff" fill-rule="evenodd"/></mask><mask id="c" fill="#fff"><path d="m22 18c.5523 0 1 .4477 1 1v3c0 .5523-.4477 1-1 1h-7v-1h7v-3h-7v-1z" fill="#fff"/></mask><path d="m0 0h32v32h-32z" fill="#fff"/><g mask="url(#a)"><path clip-rule="evenodd" d="m20.435 13.5355-9.1923 9.1924-2.12137-2.1213 9.19237-9.1924zm-2.8284-2.8284c.3905-.3905 1.0237-.3905 1.4142 0l2.1213 2.1213c.3906.3906.3906 1.0237 0 1.4142l-9.1923 9.1924c-.3906.3906-1.0237.3906-1.4143 0l-2.12127-2.1213c-.39053-.3905-.39053-1.0237 0-1.4142z" fill="#000" fill-opacity=".8" fill-rule="evenodd"/></g><g fill="#000" fill-opacity=".8"><path d="m10 10v-1h-1v1zm3 0h1v-1h-1zm-3 12h-1v1h1zm3 0v1h1v-1zm-3-11h3v-2h-3zm1 11v-12h-2v12zm2-1h-3v2h3zm-1-11v12h2v-12zm-2 0v-2c-1.10457 0-2 .89543-2 2zm0 12v-12h-2v12zm0 0h-2c0 1.1046.89543 2 2 2zm3 0h-3v2h3zm0 0v2c1.1046 0 2-.8954 2-2zm0-12v12h2v-12zm0 0h2c0-1.10457-.8954-2-2-2zm-3 0h3v-2h-3z" mask="url(#b)"/><path d="m10.75 20.5c0-.4142.3358-.75.75-.75s.75.3358.75.75-.3358.75-.75.75-.75-.3358-.75-.75z"/><path d="m15 23h-1v1h1zm0-5v-1h-1v1zm7 4v1h1v-1zm0-3h1v-1h-1zm-7 3v-1h-1v1zm0-3h-1v1h1zm9 0c0-1.1046-.8954-2-2-2v2zm0 3v-3h-2v3zm-2 2c1.1046 0 2-.8954 2-2h-2zm-7 0h7v-2h-7zm7-7h-7v2h7zm1 5v-3h-2v3zm-8 1h7v-2h-7zm7-5h-7v2h7zm-8 0v1h2v-1zm0 4v1h2v-1z" mask="url(#c)"/></g><path d="m10 10h3v3h-3z" fill="#189ffb"/><path d="m10 13h3v3h-3z" fill="#a8cdec"/><path d="m10 16h3v3h-3z" fill="#daebf7"/></svg>