<svg width="240" height="128" viewBox="0 0 240 128" fill="none" xmlns="http://www.w3.org/2000/svg">
<g clip-path="url(#clip0)">
<rect width="240" height="128" fill="#F5F5F5"/>
<g filter="url(#filter0_d)">
<rect x="48" y="29" width="87" height="58" fill="#E5E5E5"/>
</g>
<rect x="48" y="34" width="17" height="53" fill="white"/>
<rect x="118" y="34" width="17" height="53" fill="white"/>
<rect x="82" y="44" width="20" height="26" fill="white"/>
<rect x="48" y="29" width="87" height="5" fill="black" fill-opacity="0.8"/>
<rect x="54" y="29" width="5" height="5" fill="#189FFB"/>
<rect x="127" y="30" width="6" height="3" rx="0.680344" fill="#189FFB"/>
<rect x="84" y="46" width="8" height="2" fill="black" fill-opacity="0.3"/>
<rect x="94" y="65" width="6" height="3" rx="0.680344" fill="#189FFB"/>
<rect x="84" y="52" width="16" height="3" fill="#E5E5E5"/>
<rect x="84" y="59" width="16" height="3" fill="#E5E5E5"/>
<rect x="98" y="46" width="2" height="2" fill="black" fill-opacity="0.8"/>
<g filter="url(#filter1_d)">
<rect x="159" y="63" width="32" height="32" rx="2.66667" fill="white"/>
</g>
<path fill-rule="evenodd" clip-rule="evenodd" d="M180.752 77.2092L178.866 79.0948L179.809 80.0376L181.694 78.152C183.257 76.5899 183.257 74.0573 181.694 72.4952C180.132 70.9331 177.6 70.9331 176.038 72.4952L174.152 74.3807L175.095 75.3236L176.98 73.438C178.022 72.3966 179.71 72.3966 180.752 73.438C181.793 74.4794 181.793 76.1678 180.752 77.2092ZM175.095 82.8659L176.038 83.8087L174.152 85.6943C172.59 87.2564 170.057 87.2564 168.495 85.6943C166.933 84.1322 166.933 81.5996 168.495 80.0375L170.381 78.1519L171.324 79.0947L169.438 80.9803C168.397 82.0217 168.397 83.7101 169.438 84.7515C170.479 85.7929 172.168 85.7929 173.209 84.7515L175.095 82.8659ZM177.452 75.7948L171.795 81.4517L172.738 82.3945L178.395 76.7376L177.452 75.7948Z" fill="black" fill-opacity="0.8"/>
<g filter="url(#filter2_d)">
<rect x="159" y="20" width="32" height="32" rx="2.66667" fill="white"/>
</g>
<path fill-rule="evenodd" clip-rule="evenodd" d="M173.859 41.9828C175.263 40.5785 175.41 38.3933 174.301 36.825L177.03 34.0962L179.386 36.4524C179.646 36.7127 180.068 36.7127 180.328 36.4524C180.589 36.192 180.589 35.7699 180.328 35.5096L177.972 33.1534L179.696 31.4295L182.075 33.8087C182.336 34.0691 182.758 34.0691 183.018 33.8087C183.279 33.5484 183.279 33.1263 183.018 32.8659L180.639 30.4867L181.654 29.4714C181.915 29.2111 181.915 28.789 181.654 28.5286C181.394 28.2683 180.972 28.2683 180.712 28.5286L173.362 35.8783C171.792 34.7476 169.589 34.8885 168.177 36.301C166.608 37.87 166.608 40.4138 168.177 41.9828C169.746 43.5518 172.29 43.5518 173.859 41.9828ZM172.909 41.0332C173.954 39.9887 173.954 38.2951 172.909 37.2506C171.864 36.206 170.171 36.206 169.126 37.2506C168.082 38.2951 168.082 39.9887 169.126 41.0332C170.171 42.0778 171.864 42.0778 172.909 41.0332Z" fill="black" fill-opacity="0.8"/>
<path d="M102 60.5L101.688 60.8904C101.569 60.7955 101.5 60.6519 101.5 60.5C101.5 60.3481 101.569 60.2045 101.688 60.1096L102 60.5ZM102 60C108.318 60 112.92 61.1702 116.808 62.9353C120.678 64.6923 123.835 67.0393 127.218 69.3363C130.611 71.6399 134.272 73.9238 139.218 75.6369C144.165 77.3501 150.421 78.5 159 78.5V79.5C150.329 79.5 143.96 78.3374 138.891 76.5818C133.822 74.8262 130.076 72.4851 126.657 70.1637C123.228 67.8357 120.165 65.5577 116.395 63.8459C112.642 62.1423 108.182 61 102 61V60ZM101.688 60.1096C102.176 59.719 102.801 59.219 103.304 58.8167C103.555 58.6155 103.776 58.4387 103.934 58.3122C104.013 58.249 104.077 58.1983 104.12 58.1635C104.142 58.146 104.159 58.1326 104.17 58.1234C104.176 58.1189 104.18 58.1154 104.183 58.1131C104.185 58.1119 104.186 58.111 104.187 58.1105C104.187 58.1102 104.187 58.1099 104.187 58.1098C104.188 58.1097 104.187 58.1097 104.188 58.1096C104.188 58.1096 104.188 58.1096 104.188 58.1096C104.188 58.1096 104.188 58.1096 104.5 58.5C104.812 58.8904 104.812 58.8904 104.812 58.8904C104.812 58.8905 104.812 58.8905 104.812 58.8905C104.812 58.8905 104.812 58.8906 104.812 58.8907C104.812 58.8908 104.812 58.891 104.811 58.8913C104.811 58.8919 104.809 58.8928 104.808 58.894C104.805 58.8963 104.801 58.8997 104.795 58.9043C104.784 58.9134 104.767 58.9269 104.745 58.9443C104.701 58.9792 104.638 59.0299 104.559 59.0931C104.401 59.2196 104.18 59.3964 103.928 59.5975C103.426 59.9999 102.801 60.4999 102.312 60.8904L101.688 60.1096ZM102.312 60.1096C102.801 60.5001 103.426 61.0001 103.928 61.4025C104.18 61.6036 104.401 61.7804 104.559 61.9069C104.638 61.9701 104.701 62.0208 104.745 62.0557C104.767 62.0731 104.784 62.0866 104.795 62.0957C104.801 62.1003 104.805 62.1037 104.808 62.106C104.809 62.1072 104.811 62.1081 104.811 62.1087C104.812 62.109 104.812 62.1092 104.812 62.1093C104.812 62.1094 104.812 62.1094 104.812 62.1094C104.812 62.1095 104.812 62.1095 104.812 62.1095C104.812 62.1095 104.812 62.1095 104.812 62.1096C104.812 62.1096 104.812 62.1096 104.5 62.5C104.188 62.8904 104.188 62.8904 104.188 62.8904C104.188 62.8904 104.188 62.8904 104.188 62.8904C104.187 62.8903 104.188 62.8903 104.187 62.8902C104.187 62.8901 104.187 62.8898 104.187 62.8895C104.186 62.889 104.185 62.8881 104.183 62.8869C104.18 62.8846 104.176 62.8811 104.17 62.8766C104.159 62.8674 104.142 62.854 104.12 62.8365C104.077 62.8017 104.013 62.751 103.934 62.6878C103.776 62.5613 103.555 62.3845 103.304 62.1833C102.801 61.781 102.176 61.281 101.688 60.8904L102.312 60.1096Z" fill="#189FFB"/>
<path d="M102 53.5L101.688 53.1096C101.569 53.2045 101.5 53.3481 101.5 53.5C101.5 53.6519 101.569 53.7955 101.688 53.8904L102 53.5ZM102 54C108.314 54 112.913 52.8939 116.799 51.2251C120.668 49.5635 123.824 47.3438 127.208 45.1707C130.6 42.9919 134.262 40.8307 139.21 39.2095C144.16 37.5881 150.418 36.5 159 36.5V35.5C150.332 35.5 143.965 36.5994 138.899 38.2592C133.832 39.9193 130.087 42.1331 126.667 44.3293C123.239 46.5312 120.176 48.6865 116.404 50.3062C112.65 51.9186 108.186 53 102 53V54ZM101.688 53.8904L104.188 55.8904L104.812 55.1096L102.312 53.1096L101.688 53.8904ZM102.312 53.8904L104.812 51.8904L104.188 51.1096L101.688 53.1096L102.312 53.8904Z" fill="#189FFB"/>
</g>
<defs>
<filter id="filter0_d" x="28.9504" y="12.6717" width="125.099" height="96.0993" filterUnits="userSpaceOnUse" color-interpolation-filters="sRGB">
<feFlood flood-opacity="0" result="BackgroundImageFix"/>
<feColorMatrix in="SourceAlpha" type="matrix" values="0 0 0 0 0 0 0 0 0 0 0 0 0 0 0 0 0 0 127 0"/>
<feOffset dy="2.72138"/>
<feGaussianBlur stdDeviation="9.52482"/>
<feColorMatrix type="matrix" values="0 0 0 0 0 0 0 0 0 0 0 0 0 0 0 0 0 0 0.15 0"/>
<feBlend mode="normal" in2="BackgroundImageFix" result="effect1_dropShadow"/>
<feBlend mode="normal" in="SourceGraphic" in2="effect1_dropShadow" result="shape"/>
</filter>
<filter id="filter1_d" x="133.6" y="41.229" width="82.7991" height="82.7991" filterUnits="userSpaceOnUse" color-interpolation-filters="sRGB">
<feFlood flood-opacity="0" result="BackgroundImageFix"/>
<feColorMatrix in="SourceAlpha" type="matrix" values="0 0 0 0 0 0 0 0 0 0 0 0 0 0 0 0 0 0 127 0"/>
<feOffset dy="3.6285"/>
<feGaussianBlur stdDeviation="12.6998"/>
<feColorMatrix type="matrix" values="0 0 0 0 0 0 0 0 0 0 0 0 0 0 0 0 0 0 0.15 0"/>
<feBlend mode="normal" in2="BackgroundImageFix" result="effect1_dropShadow"/>
<feBlend mode="normal" in="SourceGraphic" in2="effect1_dropShadow" result="shape"/>
</filter>
<filter id="filter2_d" x="133.6" y="-1.77102" width="82.7991" height="82.7991" filterUnits="userSpaceOnUse" color-interpolation-filters="sRGB">
<feFlood flood-opacity="0" result="BackgroundImageFix"/>
<feColorMatrix in="SourceAlpha" type="matrix" values="0 0 0 0 0 0 0 0 0 0 0 0 0 0 0 0 0 0 127 0"/>
<feOffset dy="3.6285"/>
<feGaussianBlur stdDeviation="12.6998"/>
<feColorMatrix type="matrix" values="0 0 0 0 0 0 0 0 0 0 0 0 0 0 0 0 0 0 0.15 0"/>
<feBlend mode="normal" in2="BackgroundImageFix" result="effect1_dropShadow"/>
<feBlend mode="normal" in="SourceGraphic" in2="effect1_dropShadow" result="shape"/>
</filter>
<clipPath id="clip0">
<rect width="240" height="128" fill="white"/>
</clipPath>
</defs>
</svg>
