<svg width="240" height="128" viewBox="0 0 240 128" fill="none" xmlns="http://www.w3.org/2000/svg">
<g clip-path="url(#clip0)">
<rect width="240" height="128" fill="#F5F5F5"/>
<circle opacity="0.08" cx="120" cy="64" r="104" fill="#189FFB"/>
<circle opacity="0.1" cx="120" cy="64" r="70" fill="#189FFB"/>
<circle cx="120" cy="64" r="22" fill="#189FFB"/>
<path d="M109.846 57.2308L109.323 56.6931C109.178 56.8343 109.096 57.0282 109.096 57.2308C109.096 57.4334 109.178 57.6274 109.323 57.7686L109.846 57.2308ZM110.369 57.7686L116.461 51.8455L115.416 50.77L109.323 56.6931L110.369 57.7686ZM109.323 57.7686L115.416 63.6916L116.461 62.6161L110.369 56.6931L109.323 57.7686ZM109.846 57.9808H130.154V56.4808H109.846V57.9808Z" fill="white"/>
<path d="M130.154 70.7693L130.677 70.2315C130.822 70.3727 130.904 70.5667 130.904 70.7693C130.904 70.9718 130.822 71.1658 130.677 71.307L130.154 70.7693ZM129.631 71.307L123.539 65.3839L124.584 64.3084L130.677 70.2315L129.631 71.307ZM130.677 71.307L124.584 77.2301L123.539 76.1546L129.631 70.2315L130.677 71.307ZM130.154 71.5193H109.846V70.0193H130.154V71.5193Z" fill="white"/>
</g>
<defs>
<clipPath id="clip0">
<rect width="240" height="128" fill="white"/>
</clipPath>
</defs>
</svg>
