<svg width="240" height="128" viewBox="0 0 240 128" fill="none" xmlns="http://www.w3.org/2000/svg">
<g clip-path="url(#clip0)">
<rect width="240" height="128" fill="#F5F5F5"/>
<g filter="url(#filter0_d)">
<rect x="70" y="20" width="115" height="67" fill="white"/>
</g>
<rect x="92.5" y="30.5" width="70" height="35.0223" rx="2.5" stroke="#F5F5F5"/>
<rect x="92" y="69" width="54" height="6" fill="#F5F5F5"/>
<rect x="149" y="69" width="14" height="6" rx="0.680344" fill="#2D527C"/>
<path d="M113.593 58.9125H118.153V57.4028H115.319V40.704H118.153V39.1943H113.593V58.9125Z" fill="#189FFB"/>
<path d="M126.12 58.9125V57.4028C124.333 57.4028 123.779 56.5864 123.779 54.784V51.7031C123.779 50.4476 123.386 49.5156 121.622 49.169V48.9379C123.386 48.5913 123.779 47.6593 123.779 46.4038V43.3228C123.779 41.5205 124.333 40.704 126.12 40.704V39.1943C123.101 39.1943 122.115 40.4883 122.115 43.3228V45.7876C122.115 47.4744 121.522 48.1291 119.804 48.1291V49.9777C121.522 49.9777 122.115 50.6324 122.115 52.3193V54.784C122.115 57.6185 123.101 58.9125 126.12 58.9125Z" fill="#189FFB"/>
<path d="M129.878 39.1943V40.704C131.665 40.704 132.22 41.5205 132.22 43.3228V46.4038C132.22 47.6593 132.613 48.5913 134.377 48.9379V49.169C132.613 49.5156 132.22 50.4476 132.22 51.7031V54.784C132.22 56.5864 131.665 57.4028 129.878 57.4028V58.9125C132.898 58.9125 133.884 57.6185 133.884 54.784V52.3193C133.884 50.6324 134.477 49.9777 136.194 49.9777V48.1291C134.477 48.1291 133.884 47.4744 133.884 45.7876V43.3228C133.884 40.4883 132.898 39.1943 129.878 39.1943Z" fill="#189FFB"/>
<path d="M142.405 39.1943H137.845V40.704H140.68V57.4028H137.845V58.9125H142.405V39.1943Z" fill="#189FFB"/>
<g filter="url(#filter1_d)">
<mask id="path-6-outside-1" maskUnits="userSpaceOnUse" x="156" y="72" width="20" height="24" fill="black">
<rect fill="white" x="156" y="72" width="20" height="24"/>
<path d="M161.281 92.0625L158 75L172.438 83.5312L165.219 85.5L161.281 92.0625Z"/>
</mask>
<path d="M161.281 92.0625L158 75L172.438 83.5312L165.219 85.5L161.281 92.0625Z" fill="#010101"/>
<path d="M161.281 92.0625L158 75L172.438 83.5312L165.219 85.5L161.281 92.0625Z" stroke="white" stroke-width="2.625" stroke-linecap="square" mask="url(#path-6-outside-1)"/>
</g>
<g filter="url(#filter2_d)">
<rect x="54" y="68" width="32" height="32" rx="2.66667" fill="white"/>
</g>
<path d="M71.2801 88.0947C71.2801 85.6435 73.3254 83.6565 75.8483 83.6565C76.1545 83.6565 76.4534 83.6863 76.7426 83.742C76.87 83.3154 76.9394 82.8649 76.9394 82.3984C76.9394 79.7376 74.7191 77.5806 71.9803 77.5806C70.029 77.5806 68.3421 78.6763 67.5327 80.2683C66.9084 79.7079 66.074 79.365 65.1568 79.365C63.2225 79.365 61.6543 80.8885 61.6543 82.7677C61.6543 84.628 63.191 86.1386 65.0983 86.169C65.0787 86.1694 65.0593 86.1704 65.0397 86.1704C63.4866 86.1704 62.1704 85.188 61.7116 83.8281C60.4536 84.4076 59.5834 85.6524 59.5834 87.0949C59.5834 89.0907 61.2488 90.7087 63.3032 90.7087H72.1575C71.6061 89.9754 71.2801 89.0722 71.2801 88.0947Z" fill="#CEE8FA"/>
<path d="M79.8231 84.9115C79.6181 84.6701 79.2504 84.6359 79.0019 84.8351C78.7534 85.0344 78.7182 85.3915 78.9233 85.633C79.5099 86.3236 79.833 87.198 79.833 88.0953C79.833 90.23 78.0454 91.9667 75.8481 91.9667C73.857 91.9667 72.2022 90.5405 71.9093 88.6844C71.9093 88.6839 71.9092 88.6834 71.9091 88.6829C71.9001 88.6256 71.8928 88.5677 71.8863 88.5095C71.8847 88.4947 71.8833 88.4799 71.8818 88.4651C71.8773 88.4191 71.8738 88.3729 71.8709 88.3265C71.8699 88.31 71.8687 88.2936 71.8679 88.2771C71.865 88.2168 71.8632 88.1563 71.8632 88.0953C71.8632 85.9606 73.6508 84.2239 75.8481 84.2239C76.109 84.2239 76.3716 84.2491 76.6288 84.2987C76.9256 84.3558 77.2183 84.183 77.3027 83.9006C77.4486 83.4118 77.5226 82.9067 77.5226 82.3991C77.5226 79.43 75.0363 77.0145 71.9801 77.0145C70.0928 77.0145 68.3789 77.9231 67.3594 79.4251C66.7062 79.0179 65.9448 78.7989 65.1566 78.7989C62.9037 78.7989 61.0708 80.5796 61.0708 82.7684C61.0708 83.0106 61.0931 83.2498 61.1366 83.4834C59.8276 84.227 58.9998 85.6084 58.9998 87.0956C58.9998 89.4008 60.9302 91.2763 63.3029 91.2763H71.8736C72.8193 92.3896 74.2499 93.1004 75.8482 93.1004C78.6887 93.1004 80.9998 90.8552 80.9998 88.0954C80.9997 86.9354 80.5819 85.8047 79.8231 84.9115ZM71.1459 90.1427H63.3029C61.5735 90.1427 60.1665 88.7758 60.1665 87.0956C60.1665 86.1243 60.6512 85.2147 61.4387 84.6461C62.1402 85.9203 63.5115 86.738 65.0395 86.738C65.0577 86.738 65.0759 86.7375 65.094 86.7368L65.1083 86.7365C65.4265 86.7311 65.6816 86.4788 65.6815 86.1695C65.6813 85.8602 65.4259 85.6082 65.1077 85.6031C63.525 85.5777 62.2375 84.3061 62.2375 82.7684C62.2375 81.2047 63.547 79.9324 65.1565 79.9324C65.8925 79.9324 66.5957 80.1999 67.1366 80.6853C67.2717 80.8066 67.4579 80.859 67.6386 80.8263C67.8195 80.7938 67.974 80.6803 68.0555 80.52C68.7994 79.057 70.3031 78.148 71.98 78.148C74.3927 78.148 76.3557 80.055 76.3557 82.3991C76.3557 82.6372 76.335 82.8746 76.294 83.1092C76.1455 83.0966 75.9965 83.0903 75.848 83.0903C73.0074 83.0903 70.6963 85.3355 70.6963 88.0953C70.6963 88.139 70.6969 88.1827 70.6981 88.2261C70.6987 88.2502 70.7 88.2741 70.7009 88.2981C70.7017 88.317 70.7022 88.336 70.7032 88.3548C70.705 88.3894 70.7074 88.4238 70.71 88.4581C70.7106 88.4659 70.711 88.4738 70.7116 88.4816C70.7148 88.5229 70.7186 88.5641 70.7229 88.6052C70.7229 88.6056 70.7229 88.6061 70.723 88.6065C70.7787 89.1404 70.9211 89.6574 71.1459 90.1427Z" fill="#2D527C"/>
</g>
<defs>
<filter id="filter0_d" x="50.9504" y="3.67173" width="153.099" height="105.099" filterUnits="userSpaceOnUse" color-interpolation-filters="sRGB">
<feFlood flood-opacity="0" result="BackgroundImageFix"/>
<feColorMatrix in="SourceAlpha" type="matrix" values="0 0 0 0 0 0 0 0 0 0 0 0 0 0 0 0 0 0 127 0"/>
<feOffset dy="2.72138"/>
<feGaussianBlur stdDeviation="9.52482"/>
<feColorMatrix type="matrix" values="0 0 0 0 0 0 0 0 0 0 0 0 0 0 0 0 0 0 0.15 0"/>
<feBlend mode="normal" in2="BackgroundImageFix" result="effect1_dropShadow"/>
<feBlend mode="normal" in="SourceGraphic" in2="effect1_dropShadow" result="shape"/>
</filter>
<filter id="filter1_d" x="152.224" y="69.764" width="27.4916" height="31.1673" filterUnits="userSpaceOnUse" color-interpolation-filters="sRGB">
<feFlood flood-opacity="0" result="BackgroundImageFix"/>
<feColorMatrix in="SourceAlpha" type="matrix" values="0 0 0 0 0 0 0 0 0 0 0 0 0 0 0 0 0 0 127 0"/>
<feOffset dy="1.3125"/>
<feGaussianBlur stdDeviation="1.96875"/>
<feColorMatrix type="matrix" values="0 0 0 0 0 0 0 0 0 0 0 0 0 0 0 0 0 0 0.35 0"/>
<feBlend mode="normal" in2="BackgroundImageFix" result="effect1_dropShadow"/>
<feBlend mode="normal" in="SourceGraphic" in2="effect1_dropShadow" result="shape"/>
</filter>
<filter id="filter2_d" x="28.6005" y="46.229" width="82.7991" height="82.7991" filterUnits="userSpaceOnUse" color-interpolation-filters="sRGB">
<feFlood flood-opacity="0" result="BackgroundImageFix"/>
<feColorMatrix in="SourceAlpha" type="matrix" values="0 0 0 0 0 0 0 0 0 0 0 0 0 0 0 0 0 0 127 0"/>
<feOffset dy="3.6285"/>
<feGaussianBlur stdDeviation="12.6998"/>
<feColorMatrix type="matrix" values="0 0 0 0 0 0 0 0 0 0 0 0 0 0 0 0 0 0 0.15 0"/>
<feBlend mode="normal" in2="BackgroundImageFix" result="effect1_dropShadow"/>
<feBlend mode="normal" in="SourceGraphic" in2="effect1_dropShadow" result="shape"/>
</filter>
<clipPath id="clip0">
<rect width="240" height="128" fill="white"/>
</clipPath>
</defs>
</svg>
