<svg width="240" height="128" viewBox="0 0 240 128" fill="none" xmlns="http://www.w3.org/2000/svg">
<rect width="240" height="128" fill="#F5F5F5"/>
<g filter="url(#filter0_d)">
<rect x="25" y="30" width="87" height="58" fill="#E5E5E5"/>
</g>
<g filter="url(#filter1_d)">
<rect x="128" y="30" width="86" height="58" fill="white"/>
</g>
<rect x="25" y="35" width="17" height="53" fill="white"/>
<rect x="95" y="35" width="17" height="53" fill="white"/>
<rect x="25" y="30" width="87" height="5" fill="black" fill-opacity="0.8"/>
<rect x="31" y="30" width="5" height="5" fill="#189FFB"/>
<rect x="104" y="31" width="6" height="3" rx="0.680344" fill="#189FFB"/>
<g filter="url(#filter2_d)">
<rect x="57" y="49" width="24" height="24" rx="2" fill="#2E2E2E"/>
</g>
<path d="M65.8333 70C67.3981 70 68.6667 68.7315 68.6667 67.1667V64.3334H65.8333C64.2685 64.3334 63 65.6019 63 67.1667C63 68.7315 64.2685 70 65.8333 70Z" fill="#0ACF83"/>
<path d="M63 61.5C63 59.9352 64.2685 58.6666 65.8333 58.6666H68.6667V64.3333H65.8333C64.2685 64.3333 63 63.0648 63 61.5V61.5Z" fill="#A259FF"/>
<path d="M63 55.8333C63 54.2685 64.2685 53 65.8333 53H68.6667V58.6667H65.8333C64.2685 58.6667 63 57.3981 63 55.8333V55.8333Z" fill="#F24E1E"/>
<path d="M68.6666 53H71.5C73.0648 53 74.3333 54.2685 74.3333 55.8333V55.8333C74.3333 57.3981 73.0648 58.6667 71.5 58.6667H68.6666V53Z" fill="#FF7262"/>
<circle cx="71.5" cy="61.5" r="2.83333" fill="#1ABCFE"/>
<circle cx="120" cy="61" r="16" fill="#189FFB"/>
<path d="M128.308 65.7693L128.827 65.2279C128.974 65.3693 129.058 65.5649 129.058 65.7693C129.058 65.9737 128.974 66.1692 128.827 66.3107L128.308 65.7693ZM127.789 66.3107L123.696 62.3876L124.734 61.3048L128.827 65.2279L127.789 66.3107ZM128.827 66.3107L124.734 70.2338L123.696 69.1509L127.789 65.2279L128.827 66.3107ZM128.308 66.5193H112V65.0193H128.308V66.5193Z" fill="white"/>
<path d="M112 56.9231L111.481 56.3817C111.333 56.5231 111.25 56.7187 111.25 56.9231C111.25 57.1275 111.333 57.323 111.481 57.4645L112 56.9231ZM112.519 57.4645L116.611 53.5414L115.573 52.4586L111.481 56.3817L112.519 57.4645ZM111.481 57.4645L115.573 61.3876L116.611 60.3047L112.519 56.3817L111.481 57.4645ZM112 57.6731H128.308V56.1731H112V57.6731Z" fill="white"/>
<rect x="147.5" y="40.5" width="45" height="32" rx="1.5" stroke="#F5F5F5"/>
<rect x="147" y="75" width="39" height="3" fill="#F5F5F5"/>
<rect x="188" y="75" width="5" height="3" rx="0.680344" fill="#2D527C"/>
<g clip-path="url(#clip0)">
<path d="M172.268 59.4696C172.268 57.263 174.057 55.4743 176.264 55.4743C176.531 55.4743 176.793 55.5011 177.046 55.5513C177.157 55.1673 177.218 54.7617 177.218 54.3417C177.218 51.9464 175.276 50.0046 172.881 50.0046C171.174 50.0046 169.699 50.991 168.991 52.4242C168.445 51.9197 167.715 51.611 166.913 51.611C165.221 51.611 163.85 52.9825 163.85 54.6742C163.85 56.3488 165.194 57.7087 166.862 57.7361C166.845 57.7364 166.828 57.7374 166.81 57.7374C165.452 57.7374 164.301 56.8529 163.9 55.6288C162.8 56.1505 162.038 57.271 162.038 58.5695C162.038 60.3663 163.495 61.8228 165.292 61.8228H173.036C172.553 61.1627 172.268 60.3496 172.268 59.4696Z" fill="#CEE8FA"/>
<path d="M179.74 56.6042C179.561 56.3869 179.239 56.3561 179.022 56.5354C178.804 56.7148 178.774 57.0364 178.953 57.2537C179.466 57.8754 179.749 58.6626 179.749 59.4703C179.749 61.392 178.185 62.9554 176.263 62.9554C174.522 62.9554 173.075 61.6715 172.819 60.0006C172.819 60.0002 172.819 59.9997 172.818 59.9993C172.811 59.9477 172.804 59.8956 172.799 59.8432C172.797 59.8299 172.796 59.8165 172.795 59.8032C172.791 59.7618 172.788 59.7202 172.785 59.6784C172.784 59.6636 172.783 59.6488 172.782 59.6339C172.78 59.5797 172.778 59.5252 172.778 59.4703C172.778 57.5486 174.342 55.9852 176.263 55.9852C176.492 55.9852 176.721 56.0079 176.946 56.0525C177.206 56.104 177.462 55.9484 177.536 55.6942C177.663 55.2542 177.728 54.7994 177.728 54.3425C177.728 51.6697 175.553 49.4952 172.881 49.4952C171.23 49.4952 169.731 50.3132 168.839 51.6653C168.268 51.2987 167.602 51.1015 166.913 51.1015C164.943 51.1015 163.339 52.7046 163.339 54.675C163.339 54.893 163.359 55.1083 163.397 55.3186C162.252 55.988 161.528 57.2316 161.528 58.5704C161.528 60.6456 163.217 62.3339 165.292 62.3339H172.787C173.615 63.3361 174.866 63.976 176.264 63.976C178.748 63.976 180.769 61.9548 180.769 59.4704C180.769 58.4262 180.404 57.4082 179.74 56.6042ZM172.151 61.3134H165.292C163.779 61.3134 162.549 60.0829 162.549 58.5704C162.549 57.696 162.973 56.8772 163.661 56.3653C164.275 57.5123 165.474 58.2484 166.81 58.2484C166.826 58.2484 166.842 58.248 166.858 58.2474L166.871 58.2471C167.149 58.2422 167.372 58.0151 167.372 57.7367C167.372 57.4583 167.148 57.2314 166.87 57.2268C165.486 57.204 164.36 56.0592 164.36 54.675C164.36 53.2673 165.505 52.122 166.913 52.122C167.557 52.122 168.171 52.3627 168.645 52.7997C168.763 52.9089 168.926 52.9561 169.084 52.9267C169.242 52.8974 169.377 52.7952 169.448 52.6509C170.099 51.3339 171.414 50.5156 172.88 50.5156C174.991 50.5156 176.707 52.2324 176.707 54.3425C176.707 54.5568 176.689 54.7706 176.654 54.9817C176.524 54.9705 176.393 54.9647 176.263 54.9647C173.779 54.9647 171.758 56.9859 171.758 59.4703C171.758 59.5097 171.758 59.549 171.759 59.5881C171.76 59.6097 171.761 59.6313 171.762 59.6528C171.763 59.6699 171.763 59.687 171.764 59.704C171.765 59.735 171.768 59.766 171.77 59.7969C171.77 59.804 171.771 59.8111 171.771 59.8181C171.774 59.8553 171.777 59.8924 171.781 59.9294C171.781 59.9297 171.781 59.9301 171.781 59.9305C171.83 60.4111 171.954 60.8766 172.151 61.3134Z" fill="#2D527C"/>
</g>
<defs>
<filter id="filter0_d" x="5.95035" y="13.6717" width="125.099" height="96.0993" filterUnits="userSpaceOnUse" color-interpolation-filters="sRGB">
<feFlood flood-opacity="0" result="BackgroundImageFix"/>
<feColorMatrix in="SourceAlpha" type="matrix" values="0 0 0 0 0 0 0 0 0 0 0 0 0 0 0 0 0 0 127 0"/>
<feOffset dy="2.72138"/>
<feGaussianBlur stdDeviation="9.52482"/>
<feColorMatrix type="matrix" values="0 0 0 0 0 0 0 0 0 0 0 0 0 0 0 0 0 0 0.15 0"/>
<feBlend mode="normal" in2="BackgroundImageFix" result="effect1_dropShadow"/>
<feBlend mode="normal" in="SourceGraphic" in2="effect1_dropShadow" result="shape"/>
</filter>
<filter id="filter1_d" x="108.95" y="13.6717" width="124.099" height="96.0993" filterUnits="userSpaceOnUse" color-interpolation-filters="sRGB">
<feFlood flood-opacity="0" result="BackgroundImageFix"/>
<feColorMatrix in="SourceAlpha" type="matrix" values="0 0 0 0 0 0 0 0 0 0 0 0 0 0 0 0 0 0 127 0"/>
<feOffset dy="2.72138"/>
<feGaussianBlur stdDeviation="9.52482"/>
<feColorMatrix type="matrix" values="0 0 0 0 0 0 0 0 0 0 0 0 0 0 0 0 0 0 0.15 0"/>
<feBlend mode="normal" in2="BackgroundImageFix" result="effect1_dropShadow"/>
<feBlend mode="normal" in="SourceGraphic" in2="effect1_dropShadow" result="shape"/>
</filter>
<filter id="filter2_d" x="37.9504" y="32.6717" width="62.0993" height="62.0993" filterUnits="userSpaceOnUse" color-interpolation-filters="sRGB">
<feFlood flood-opacity="0" result="BackgroundImageFix"/>
<feColorMatrix in="SourceAlpha" type="matrix" values="0 0 0 0 0 0 0 0 0 0 0 0 0 0 0 0 0 0 127 0"/>
<feOffset dy="2.72138"/>
<feGaussianBlur stdDeviation="9.52482"/>
<feColorMatrix type="matrix" values="0 0 0 0 0 0 0 0 0 0 0 0 0 0 0 0 0 0 0.15 0"/>
<feBlend mode="normal" in2="BackgroundImageFix" result="effect1_dropShadow"/>
<feBlend mode="normal" in="SourceGraphic" in2="effect1_dropShadow" result="shape"/>
</filter>
<clipPath id="clip0">
<rect width="19.2408" height="16.9861" fill="white" transform="translate(161.528 49.4819)"/>
</clipPath>
</defs>
</svg>
